<mxfile host="65bd71144e">
    <diagram name="Page-1" id="QG35j7kPHG6dron8eKFu">
        <mxGraphModel dx="9288" dy="1434" grid="0" gridSize="10" guides="1" tooltips="1" connect="1" arrows="1" fold="1" page="0" pageScale="1" pageWidth="827" pageHeight="1169" math="0" shadow="0" adaptiveColors="auto">
            <root>
                <mxCell id="0"/>
                <mxCell id="1" parent="0"/>
                <mxCell id="nX7riBeXGqenWPoqPl__-16" value="Current" style="swimlane;whiteSpace=wrap;html=1;" parent="1" vertex="1">
                    <mxGeometry x="-2323" y="-155" width="2139" height="1474" as="geometry"/>
                </mxCell>
                <mxCell id="VFV9XwUGxA5xjS1nipd3-9" style="edgeStyle=orthogonalEdgeStyle;rounded=0;orthogonalLoop=1;jettySize=auto;html=1;endArrow=diamondThin;endFill=1;endSize=26;" parent="nX7riBeXGqenWPoqPl__-16" source="nX7riBeXGqenWPoqPl__-19" target="nX7riBeXGqenWPoqPl__-52" edge="1">
                    <mxGeometry relative="1" as="geometry"/>
                </mxCell>
                <mxCell id="nX7riBeXGqenWPoqPl__-19" value="&lt;span style=&quot;background-color: transparent;&quot;&gt;SDLGLWindow&lt;/span&gt;" style="swimlane;fontStyle=1;align=center;verticalAlign=top;childLayout=stackLayout;horizontal=1;startSize=26;horizontalStack=0;resizeParent=1;resizeParentMax=0;resizeLast=0;collapsible=1;marginBottom=0;whiteSpace=wrap;html=1;" parent="nX7riBeXGqenWPoqPl__-16" vertex="1">
                    <mxGeometry x="440" y="60" width="174" height="166" as="geometry"/>
                </mxCell>
                <mxCell id="nX7riBeXGqenWPoqPl__-20" value="&lt;div&gt;&lt;font style=&quot;color: light-dark(rgb(0, 0, 0), rgb(255, 252, 252));&quot;&gt;- m_Window : SDL_Window*&lt;/font&gt;&lt;/div&gt;&lt;div&gt;- m_currentScene : Scene&lt;/div&gt;&lt;div&gt;&lt;font style=&quot;color: light-dark(rgb(0, 0, 0), rgb(255, 252, 252));&quot;&gt;+ bool m_Quit&lt;/font&gt;&lt;/div&gt;" style="text;strokeColor=none;fillColor=none;align=left;verticalAlign=top;spacingLeft=4;spacingRight=4;overflow=hidden;rotatable=0;points=[[0,0.5],[1,0.5]];portConstraint=eastwest;whiteSpace=wrap;html=1;" parent="nX7riBeXGqenWPoqPl__-19" vertex="1">
                    <mxGeometry y="26" width="174" height="52" as="geometry"/>
                </mxCell>
                <mxCell id="nX7riBeXGqenWPoqPl__-21" value="" style="line;strokeWidth=1;fillColor=none;align=left;verticalAlign=middle;spacingTop=-1;spacingLeft=3;spacingRight=3;rotatable=0;labelPosition=right;points=[];portConstraint=eastwest;strokeColor=inherit;" parent="nX7riBeXGqenWPoqPl__-19" vertex="1">
                    <mxGeometry y="78" width="174" height="8" as="geometry"/>
                </mxCell>
                <mxCell id="nX7riBeXGqenWPoqPl__-22" value="&lt;div&gt;+ Update() : void&lt;/div&gt;&lt;div&gt;+ AddScene(Scene*) : void&lt;/div&gt;&lt;div&gt;&lt;br&gt;&lt;/div&gt;&lt;div&gt;+ SDLGLWindow(char* int, int)&lt;/div&gt;&lt;div&gt;+ ~SDLGLWindow()&lt;/div&gt;" style="text;strokeColor=none;fillColor=none;align=left;verticalAlign=top;spacingLeft=4;spacingRight=4;overflow=hidden;rotatable=0;points=[[0,0.5],[1,0.5]];portConstraint=eastwest;whiteSpace=wrap;html=1;" parent="nX7riBeXGqenWPoqPl__-19" vertex="1">
                    <mxGeometry y="86" width="174" height="80" as="geometry"/>
                </mxCell>
                <mxCell id="nX7riBeXGqenWPoqPl__-32" value="Texture" style="swimlane;fontStyle=1;align=center;verticalAlign=top;childLayout=stackLayout;horizontal=1;startSize=26;horizontalStack=0;resizeParent=1;resizeParentMax=0;resizeLast=0;collapsible=1;marginBottom=0;whiteSpace=wrap;html=1;" parent="nX7riBeXGqenWPoqPl__-16" vertex="1">
                    <mxGeometry x="546" y="742" width="245" height="219" as="geometry"/>
                </mxCell>
                <mxCell id="nX7riBeXGqenWPoqPl__-33" value="&lt;font style=&quot;color: light-dark(rgb(0, 0, 0), rgb(255, 255, 255));&quot;&gt;- m_id : GLuint&lt;/font&gt;&lt;div&gt;&lt;font style=&quot;color: light-dark(rgb(0, 0, 0), rgb(255, 255, 255));&quot;&gt;- m_data : vector&amp;lt;uchar&amp;gt;&lt;/font&gt;&lt;/div&gt;&lt;div&gt;&lt;font style=&quot;color: light-dark(rgb(0, 0, 0), rgb(255, 255, 255));&quot;&gt;- m_size : ivec2&lt;/font&gt;&lt;/div&gt;&lt;div&gt;&lt;font style=&quot;color: light-dark(rgb(0, 0, 0), rgb(255, 255, 255));&quot;&gt;- m_dirty : bool&lt;/font&gt;&lt;/div&gt;" style="text;strokeColor=none;fillColor=none;align=left;verticalAlign=top;spacingLeft=4;spacingRight=4;overflow=hidden;rotatable=0;points=[[0,0.5],[1,0.5]];portConstraint=eastwest;whiteSpace=wrap;html=1;" parent="nX7riBeXGqenWPoqPl__-32" vertex="1">
                    <mxGeometry y="26" width="245" height="60" as="geometry"/>
                </mxCell>
                <mxCell id="nX7riBeXGqenWPoqPl__-34" value="" style="line;strokeWidth=1;fillColor=none;align=left;verticalAlign=middle;spacingTop=-1;spacingLeft=3;spacingRight=3;rotatable=0;labelPosition=right;points=[];portConstraint=eastwest;strokeColor=inherit;" parent="nX7riBeXGqenWPoqPl__-32" vertex="1">
                    <mxGeometry y="86" width="245" height="8" as="geometry"/>
                </mxCell>
                <mxCell id="nX7riBeXGqenWPoqPl__-35" value="&lt;font style=&quot;color: light-dark(rgb(0, 0, 0), rgb(255, 255, 255));&quot;&gt;+ Texture(const string&amp;amp;)&lt;/font&gt;&lt;div&gt;&lt;font style=&quot;color: light-dark(rgb(0, 0, 0), rgb(255, 255, 255));&quot;&gt;+ Texture(ivec2)&lt;/font&gt;&lt;/div&gt;&lt;div&gt;&lt;font style=&quot;color: light-dark(rgb(0, 0, 0), rgb(255, 255, 255));&quot;&gt;+ Size(ivec2) : void&lt;/font&gt;&lt;/div&gt;&lt;div&gt;&lt;font style=&quot;color: light-dark(rgb(0, 0, 0), rgb(255, 255, 255));&quot;&gt;+ Size() : const ivec2&lt;/font&gt;&lt;/div&gt;&lt;div&gt;&lt;font style=&quot;color: light-dark(rgb(0, 0, 0), rgb(255, 255, 255));&quot;&gt;+ &lt;u&gt;Load(const string&amp;amp;) : void&lt;/u&gt;&lt;/font&gt;&lt;/div&gt;&lt;div&gt;&lt;font style=&quot;color: light-dark(rgb(0, 0, 0), rgb(255, 255, 255));&quot;&gt;+ Pixel(ivec2, vec4) : void&lt;/font&gt;&lt;/div&gt;&lt;div&gt;&lt;font style=&quot;color: light-dark(rgb(0, 0, 0), rgb(255, 255, 255));&quot;&gt;+ Pixel(ivec2) : const vec4&lt;/font&gt;&lt;/div&gt;&lt;div&gt;&lt;font style=&quot;color: light-dark(rgb(0, 0, 0), rgb(255, 255, 255));&quot;&gt;+ GetID() : GLuint&lt;/font&gt;&lt;/div&gt;" style="text;strokeColor=none;fillColor=none;align=left;verticalAlign=top;spacingLeft=4;spacingRight=4;overflow=hidden;rotatable=0;points=[[0,0.5],[1,0.5]];portConstraint=eastwest;whiteSpace=wrap;html=1;" parent="nX7riBeXGqenWPoqPl__-32" vertex="1">
                    <mxGeometry y="94" width="245" height="125" as="geometry"/>
                </mxCell>
                <mxCell id="nX7riBeXGqenWPoqPl__-36" value="ShaderProgram" style="swimlane;fontStyle=1;align=center;verticalAlign=top;childLayout=stackLayout;horizontal=1;startSize=26;horizontalStack=0;resizeParent=1;resizeParentMax=0;resizeLast=0;collapsible=1;marginBottom=0;whiteSpace=wrap;html=1;" parent="nX7riBeXGqenWPoqPl__-16" vertex="1">
                    <mxGeometry x="1173" y="738" width="285" height="196" as="geometry"/>
                </mxCell>
                <mxCell id="nX7riBeXGqenWPoqPl__-37" value="- m_id : GLuint" style="text;strokeColor=none;fillColor=none;align=left;verticalAlign=top;spacingLeft=4;spacingRight=4;overflow=hidden;rotatable=0;points=[[0,0.5],[1,0.5]];portConstraint=eastwest;whiteSpace=wrap;html=1;" parent="nX7riBeXGqenWPoqPl__-36" vertex="1">
                    <mxGeometry y="26" width="285" height="23" as="geometry"/>
                </mxCell>
                <mxCell id="nX7riBeXGqenWPoqPl__-38" value="" style="line;strokeWidth=1;fillColor=none;align=left;verticalAlign=middle;spacingTop=-1;spacingLeft=3;spacingRight=3;rotatable=0;labelPosition=right;points=[];portConstraint=eastwest;strokeColor=inherit;" parent="nX7riBeXGqenWPoqPl__-36" vertex="1">
                    <mxGeometry y="49" width="285" height="8" as="geometry"/>
                </mxCell>
                <mxCell id="nX7riBeXGqenWPoqPl__-39" value="&lt;div&gt;&lt;font style=&quot;color: light-dark(rgb(0, 0, 0), rgb(255, 255, 255));&quot;&gt;+ Use() : void&lt;/font&gt;&lt;/div&gt;&lt;div&gt;&lt;font style=&quot;color: light-dark(rgb(0, 0, 0), rgb(255, 255, 255));&quot;&gt;+ SetUniform(const string&amp;amp;, vec4) : void&lt;/font&gt;&lt;/div&gt;&lt;font style=&quot;color: light-dark(rgb(0, 0, 0), rgb(255, 255, 255));&quot;&gt;+ SetUniform(const string&amp;amp;, vec3) : void&lt;/font&gt;&lt;div&gt;&lt;font style=&quot;color: light-dark(rgb(0, 0, 0), rgb(255, 255, 255));&quot;&gt;+ SetUniform(const string&amp;amp;, float) : void&lt;/font&gt;&lt;/div&gt;&lt;div&gt;&lt;font style=&quot;color: light-dark(rgb(0, 0, 0), rgb(255, 255, 255));&quot;&gt;&lt;br&gt;&lt;/font&gt;&lt;/div&gt;&lt;div&gt;&lt;font style=&quot;color: light-dark(rgb(0, 0, 0), rgb(255, 255, 255));&quot;&gt;+ GetID() : GLuint&lt;/font&gt;&lt;/div&gt;&lt;div&gt;&lt;font style=&quot;color: light-dark(rgb(0, 0, 0), rgb(255, 255, 255));&quot;&gt;&lt;br&gt;&lt;/font&gt;&lt;/div&gt;&lt;div&gt;&lt;font style=&quot;color: light-dark(rgb(0, 0, 0), rgb(255, 255, 255));&quot;&gt;+ ShaderProgram(const GLchar*, const GLchar*)&lt;/font&gt;&lt;/div&gt;&lt;div&gt;&lt;font style=&quot;color: light-dark(rgb(0, 0, 0), rgb(255, 255, 255));&quot;&gt;+ ~ShaderProgram()&lt;/font&gt;&lt;/div&gt;" style="text;strokeColor=none;fillColor=none;align=left;verticalAlign=top;spacingLeft=4;spacingRight=4;overflow=hidden;rotatable=0;points=[[0,0.5],[1,0.5]];portConstraint=eastwest;whiteSpace=wrap;html=1;" parent="nX7riBeXGqenWPoqPl__-36" vertex="1">
                    <mxGeometry y="57" width="285" height="139" as="geometry"/>
                </mxCell>
                <mxCell id="nX7riBeXGqenWPoqPl__-41" style="edgeStyle=orthogonalEdgeStyle;rounded=0;orthogonalLoop=1;jettySize=auto;html=1;endArrow=diamondThin;endFill=1;endSize=26;" parent="nX7riBeXGqenWPoqPl__-16" source="nX7riBeXGqenWPoqPl__-42" target="nX7riBeXGqenWPoqPl__-48" edge="1">
                    <mxGeometry relative="1" as="geometry">
                        <Array as="points">
                            <mxPoint x="848" y="633"/>
                            <mxPoint x="848" y="633"/>
                        </Array>
                    </mxGeometry>
                </mxCell>
                <mxCell id="VFV9XwUGxA5xjS1nipd3-2" style="edgeStyle=orthogonalEdgeStyle;rounded=0;orthogonalLoop=1;jettySize=auto;html=1;endArrow=diamondThin;endFill=1;endSize=26;entryX=0.5;entryY=0;entryDx=0;entryDy=0;" parent="nX7riBeXGqenWPoqPl__-16" source="nX7riBeXGqenWPoqPl__-42" target="nX7riBeXGqenWPoqPl__-36" edge="1">
                    <mxGeometry relative="1" as="geometry"/>
                </mxCell>
                <mxCell id="VFV9XwUGxA5xjS1nipd3-10" style="edgeStyle=orthogonalEdgeStyle;rounded=0;orthogonalLoop=1;jettySize=auto;html=1;endSize=26;endArrow=diamondThin;endFill=1;entryX=0.5;entryY=0;entryDx=0;entryDy=0;" parent="nX7riBeXGqenWPoqPl__-16" source="nX7riBeXGqenWPoqPl__-42" target="_Vgj__aWUREw3y97PpKe-4" edge="1">
                    <mxGeometry relative="1" as="geometry">
                        <Array as="points">
                            <mxPoint x="905" y="685"/>
                            <mxPoint x="1085" y="685"/>
                        </Array>
                    </mxGeometry>
                </mxCell>
                <mxCell id="VFV9XwUGxA5xjS1nipd3-11" style="edgeStyle=orthogonalEdgeStyle;rounded=0;orthogonalLoop=1;jettySize=auto;html=1;endSize=26;endArrow=diamondThin;endFill=1;" parent="nX7riBeXGqenWPoqPl__-16" source="nX7riBeXGqenWPoqPl__-42" target="nX7riBeXGqenWPoqPl__-32" edge="1">
                    <mxGeometry relative="1" as="geometry">
                        <Array as="points">
                            <mxPoint x="905" y="685"/>
                            <mxPoint x="671" y="685"/>
                        </Array>
                    </mxGeometry>
                </mxCell>
                <mxCell id="nX7riBeXGqenWPoqPl__-42" value="Entity" style="swimlane;fontStyle=1;align=center;verticalAlign=top;childLayout=stackLayout;horizontal=1;startSize=26;horizontalStack=0;resizeParent=1;resizeParentMax=0;resizeLast=0;collapsible=1;marginBottom=0;whiteSpace=wrap;html=1;" parent="nX7riBeXGqenWPoqPl__-16" vertex="1">
                    <mxGeometry x="778.13" y="383" width="253.75" height="250" as="geometry"/>
                </mxCell>
                <mxCell id="nX7riBeXGqenWPoqPl__-43" value="&lt;div&gt;- m_Transform : Transform&lt;/div&gt;&lt;div&gt;- m_Model : Model*&lt;/div&gt;&lt;div&gt;- m_Texture : Texture*&lt;/div&gt;&lt;div&gt;- m_Shader : ShaderProgram*&lt;/div&gt;" style="text;strokeColor=none;fillColor=none;align=left;verticalAlign=top;spacingLeft=4;spacingRight=4;overflow=hidden;rotatable=0;points=[[0,0.5],[1,0.5]];portConstraint=eastwest;whiteSpace=wrap;html=1;" parent="nX7riBeXGqenWPoqPl__-42" vertex="1">
                    <mxGeometry y="26" width="253.75" height="64" as="geometry"/>
                </mxCell>
                <mxCell id="nX7riBeXGqenWPoqPl__-44" value="" style="line;strokeWidth=1;fillColor=none;align=left;verticalAlign=middle;spacingTop=-1;spacingLeft=3;spacingRight=3;rotatable=0;labelPosition=right;points=[];portConstraint=eastwest;strokeColor=inherit;" parent="nX7riBeXGqenWPoqPl__-42" vertex="1">
                    <mxGeometry y="90" width="253.75" height="8" as="geometry"/>
                </mxCell>
                <mxCell id="nX7riBeXGqenWPoqPl__-45" value="&lt;div&gt;+ Draw(Camera*) : void&lt;/div&gt;&lt;div&gt;&lt;br&gt;&lt;/div&gt;&lt;div&gt;+ Move(vec3) : void&lt;/div&gt;&lt;div&gt;+ Rotate(vec3) : void&lt;/div&gt;&lt;div&gt;+ Scale(vec3) : void&lt;/div&gt;&lt;div&gt;&lt;br&gt;&lt;/div&gt;&lt;div&gt;+ Entity(char* _modelPath, char* _texPath)&lt;/div&gt;&lt;div&gt;+ Entity(vec3)&lt;/div&gt;&lt;div&gt;+ Entity(Transform, char*, char*, char*, char*)&lt;/div&gt;&lt;div&gt;+ ~Entity()&lt;/div&gt;" style="text;strokeColor=none;fillColor=none;align=left;verticalAlign=top;spacingLeft=4;spacingRight=4;overflow=hidden;rotatable=0;points=[[0,0.5],[1,0.5]];portConstraint=eastwest;whiteSpace=wrap;html=1;" parent="nX7riBeXGqenWPoqPl__-42" vertex="1">
                    <mxGeometry y="98" width="253.75" height="152" as="geometry"/>
                </mxCell>
                <mxCell id="nX7riBeXGqenWPoqPl__-48" value="Model" style="swimlane;fontStyle=1;align=center;verticalAlign=top;childLayout=stackLayout;horizontal=1;startSize=26;horizontalStack=0;resizeParent=1;resizeParentMax=0;resizeLast=0;collapsible=1;marginBottom=0;whiteSpace=wrap;html=1;" parent="nX7riBeXGqenWPoqPl__-16" vertex="1">
                    <mxGeometry x="825" y="742" width="160" height="137" as="geometry"/>
                </mxCell>
                <mxCell id="nX7riBeXGqenWPoqPl__-49" value="&lt;div&gt;- m_Faces : Vector&amp;lt;Face&amp;gt;&lt;/div&gt;&lt;div&gt;- m_vaoID : GLuint&lt;/div&gt;&lt;div&gt;- m_vboID : GLuint&lt;/div&gt;&lt;div&gt;- m_dirty : bool&lt;/div&gt;" style="text;strokeColor=none;fillColor=none;align=left;verticalAlign=top;spacingLeft=4;spacingRight=4;overflow=hidden;rotatable=0;points=[[0,0.5],[1,0.5]];portConstraint=eastwest;whiteSpace=wrap;html=1;" parent="nX7riBeXGqenWPoqPl__-48" vertex="1">
                    <mxGeometry y="26" width="160" height="67" as="geometry"/>
                </mxCell>
                <mxCell id="nX7riBeXGqenWPoqPl__-50" value="" style="line;strokeWidth=1;fillColor=none;align=left;verticalAlign=middle;spacingTop=-1;spacingLeft=3;spacingRight=3;rotatable=0;labelPosition=right;points=[];portConstraint=eastwest;strokeColor=inherit;" parent="nX7riBeXGqenWPoqPl__-48" vertex="1">
                    <mxGeometry y="93" width="160" height="8" as="geometry"/>
                </mxCell>
                <mxCell id="nX7riBeXGqenWPoqPl__-51" value="&lt;div&gt;+ GetVertexCount() : int&lt;/div&gt;&lt;div&gt;+ GetVAO() : GLuint&lt;/div&gt;" style="text;strokeColor=none;fillColor=none;align=left;verticalAlign=top;spacingLeft=4;spacingRight=4;overflow=hidden;rotatable=0;points=[[0,0.5],[1,0.5]];portConstraint=eastwest;whiteSpace=wrap;html=1;" parent="nX7riBeXGqenWPoqPl__-48" vertex="1">
                    <mxGeometry y="101" width="160" height="36" as="geometry"/>
                </mxCell>
                <mxCell id="nX7riBeXGqenWPoqPl__-56" style="edgeStyle=orthogonalEdgeStyle;rounded=0;orthogonalLoop=1;jettySize=auto;html=1;endArrow=diamondThin;endFill=1;endSize=26;" parent="nX7riBeXGqenWPoqPl__-16" source="nX7riBeXGqenWPoqPl__-52" target="nX7riBeXGqenWPoqPl__-42" edge="1">
                    <mxGeometry relative="1" as="geometry"/>
                </mxCell>
                <mxCell id="_Vgj__aWUREw3y97PpKe-2" style="edgeStyle=orthogonalEdgeStyle;rounded=0;orthogonalLoop=1;jettySize=auto;html=1;endArrow=diamondThin;endFill=1;endSize=26;" parent="nX7riBeXGqenWPoqPl__-16" source="nX7riBeXGqenWPoqPl__-52" target="nX7riBeXGqenWPoqPl__-58" edge="1">
                    <mxGeometry relative="1" as="geometry">
                        <Array as="points">
                            <mxPoint x="735" y="407"/>
                            <mxPoint x="735" y="280"/>
                        </Array>
                    </mxGeometry>
                </mxCell>
                <mxCell id="nX7riBeXGqenWPoqPl__-52" value="Scene" style="swimlane;fontStyle=1;align=center;verticalAlign=top;childLayout=stackLayout;horizontal=1;startSize=26;horizontalStack=0;resizeParent=1;resizeParentMax=0;resizeLast=0;collapsible=1;marginBottom=0;whiteSpace=wrap;html=1;" parent="nX7riBeXGqenWPoqPl__-16" vertex="1">
                    <mxGeometry x="426.5" y="348" width="201" height="168" as="geometry"/>
                </mxCell>
                <mxCell id="nX7riBeXGqenWPoqPl__-53" value="&lt;div&gt;- m_Entities : Vector&amp;lt;Entity&amp;gt;&lt;/div&gt;&lt;div&gt;- m_Camera : Camera&lt;/div&gt;" style="text;strokeColor=none;fillColor=none;align=left;verticalAlign=top;spacingLeft=4;spacingRight=4;overflow=hidden;rotatable=0;points=[[0,0.5],[1,0.5]];portConstraint=eastwest;whiteSpace=wrap;html=1;" parent="nX7riBeXGqenWPoqPl__-52" vertex="1">
                    <mxGeometry y="26" width="201" height="38" as="geometry"/>
                </mxCell>
                <mxCell id="nX7riBeXGqenWPoqPl__-54" value="" style="line;strokeWidth=1;fillColor=none;align=left;verticalAlign=middle;spacingTop=-1;spacingLeft=3;spacingRight=3;rotatable=0;labelPosition=right;points=[];portConstraint=eastwest;strokeColor=inherit;" parent="nX7riBeXGqenWPoqPl__-52" vertex="1">
                    <mxGeometry y="64" width="201" height="8" as="geometry"/>
                </mxCell>
                <mxCell id="nX7riBeXGqenWPoqPl__-55" value="&lt;div&gt;+ AddEntity(&amp;amp;Entity) : void&lt;/div&gt;&lt;div&gt;&lt;br&gt;&lt;/div&gt;&lt;div&gt;+ Update() : void&lt;/div&gt;&lt;div&gt;&lt;br&gt;&lt;/div&gt;&lt;div&gt;+ Scene()&lt;/div&gt;&lt;div&gt;+ ~Scene()&lt;/div&gt;" style="text;strokeColor=none;fillColor=none;align=left;verticalAlign=top;spacingLeft=4;spacingRight=4;overflow=hidden;rotatable=0;points=[[0,0.5],[1,0.5]];portConstraint=eastwest;whiteSpace=wrap;html=1;" parent="nX7riBeXGqenWPoqPl__-52" vertex="1">
                    <mxGeometry y="72" width="201" height="96" as="geometry"/>
                </mxCell>
                <mxCell id="nX7riBeXGqenWPoqPl__-58" value="&lt;div&gt;&lt;span style=&quot;background-color: transparent;&quot;&gt;Camera&lt;/span&gt;&lt;/div&gt;" style="swimlane;fontStyle=1;align=center;verticalAlign=top;childLayout=stackLayout;horizontal=1;startSize=26;horizontalStack=0;resizeParent=1;resizeParentMax=0;resizeLast=0;collapsible=1;marginBottom=0;whiteSpace=wrap;html=1;" parent="nX7riBeXGqenWPoqPl__-16" vertex="1">
                    <mxGeometry x="791" y="211.5" width="228" height="156" as="geometry"/>
                </mxCell>
                <mxCell id="nX7riBeXGqenWPoqPl__-59" value="&lt;div&gt;- m_Transform : Transform&lt;/div&gt;&lt;div&gt;- m_Projection : mat4&lt;/div&gt;" style="text;strokeColor=none;fillColor=none;align=left;verticalAlign=top;spacingLeft=4;spacingRight=4;overflow=hidden;rotatable=0;points=[[0,0.5],[1,0.5]];portConstraint=eastwest;whiteSpace=wrap;html=1;" parent="nX7riBeXGqenWPoqPl__-58" vertex="1">
                    <mxGeometry y="26" width="228" height="41" as="geometry"/>
                </mxCell>
                <mxCell id="nX7riBeXGqenWPoqPl__-60" value="" style="line;strokeWidth=1;fillColor=none;align=left;verticalAlign=middle;spacingTop=-1;spacingLeft=3;spacingRight=3;rotatable=0;labelPosition=right;points=[];portConstraint=eastwest;strokeColor=inherit;" parent="nX7riBeXGqenWPoqPl__-58" vertex="1">
                    <mxGeometry y="67" width="228" height="8" as="geometry"/>
                </mxCell>
                <mxCell id="nX7riBeXGqenWPoqPl__-61" value="&lt;div&gt;&lt;span style=&quot;background-color: transparent; color: rgb(63, 63, 63);&quot;&gt;- CalculateView()&lt;/span&gt;&lt;/div&gt;&lt;div&gt;+ Use()&lt;/div&gt;&lt;div&gt;&lt;br&gt;&lt;/div&gt;&lt;div&gt;+ Camera()&lt;/div&gt;&lt;div&gt;+ ~Camera()&lt;/div&gt;" style="text;strokeColor=none;fillColor=none;align=left;verticalAlign=top;spacingLeft=4;spacingRight=4;overflow=hidden;rotatable=0;points=[[0,0.5],[1,0.5]];portConstraint=eastwest;whiteSpace=wrap;html=1;" parent="nX7riBeXGqenWPoqPl__-58" vertex="1">
                    <mxGeometry y="75" width="228" height="81" as="geometry"/>
                </mxCell>
                <mxCell id="_Vgj__aWUREw3y97PpKe-4" value="Transform" style="swimlane;fontStyle=1;align=center;verticalAlign=top;childLayout=stackLayout;horizontal=1;startSize=26;horizontalStack=0;resizeParent=1;resizeParentMax=0;resizeLast=0;collapsible=1;marginBottom=0;whiteSpace=wrap;html=1;" parent="nX7riBeXGqenWPoqPl__-16" vertex="1">
                    <mxGeometry x="1005" y="742" width="160" height="264" as="geometry"/>
                </mxCell>
                <mxCell id="_Vgj__aWUREw3y97PpKe-5" value="&lt;div&gt;- m_Position : vec3&lt;/div&gt;&lt;div&gt;- m_Rotation : vec4&lt;/div&gt;&lt;div&gt;- m_Scale : vec3&lt;/div&gt;&lt;div&gt;- m_Up : vec3&lt;/div&gt;&lt;div&gt;- m_Forward : vec3&lt;/div&gt;" style="text;strokeColor=none;fillColor=none;align=left;verticalAlign=top;spacingLeft=4;spacingRight=4;overflow=hidden;rotatable=0;points=[[0,0.5],[1,0.5]];portConstraint=eastwest;whiteSpace=wrap;html=1;" parent="_Vgj__aWUREw3y97PpKe-4" vertex="1">
                    <mxGeometry y="26" width="160" height="78" as="geometry"/>
                </mxCell>
                <mxCell id="_Vgj__aWUREw3y97PpKe-6" value="" style="line;strokeWidth=1;fillColor=none;align=left;verticalAlign=middle;spacingTop=-1;spacingLeft=3;spacingRight=3;rotatable=0;labelPosition=right;points=[];portConstraint=eastwest;strokeColor=inherit;" parent="_Vgj__aWUREw3y97PpKe-4" vertex="1">
                    <mxGeometry y="104" width="160" height="8" as="geometry"/>
                </mxCell>
                <mxCell id="_Vgj__aWUREw3y97PpKe-7" value="&lt;div&gt;+ Translate(vec3)&lt;/div&gt;&lt;div&gt;+ Rotate(vec3 _euler)&lt;/div&gt;&lt;div&gt;+ Rotate(vec4)&lt;/div&gt;&lt;div&gt;&lt;br&gt;&lt;/div&gt;&lt;div&gt;+ Position() : vec3&lt;/div&gt;&lt;div&gt;+ Rotation() : vec3&lt;/div&gt;&lt;div&gt;+ Scale() : vec3&lt;/div&gt;&lt;div&gt;&lt;br&gt;&lt;/div&gt;&lt;div&gt;+ Transform()&lt;/div&gt;&lt;div&gt;+ ~Transform()&lt;/div&gt;" style="text;strokeColor=none;fillColor=none;align=left;verticalAlign=top;spacingLeft=4;spacingRight=4;overflow=hidden;rotatable=0;points=[[0,0.5],[1,0.5]];portConstraint=eastwest;whiteSpace=wrap;html=1;" parent="_Vgj__aWUREw3y97PpKe-4" vertex="1">
                    <mxGeometry y="112" width="160" height="152" as="geometry"/>
                </mxCell>
                <mxCell id="mvs7uQlptrKoOY5siquW-11" style="edgeStyle=orthogonalEdgeStyle;rounded=0;orthogonalLoop=1;jettySize=auto;html=1;" parent="nX7riBeXGqenWPoqPl__-16" source="mvs7uQlptrKoOY5siquW-7" target="nX7riBeXGqenWPoqPl__-32" edge="1">
                    <mxGeometry relative="1" as="geometry"/>
                </mxCell>
                <mxCell id="mvs7uQlptrKoOY5siquW-7" value="RenderTexture : Texture" style="swimlane;fontStyle=1;align=center;verticalAlign=top;childLayout=stackLayout;horizontal=1;startSize=26;horizontalStack=0;resizeParent=1;resizeParentMax=0;resizeLast=0;collapsible=1;marginBottom=0;whiteSpace=wrap;html=1;" parent="nX7riBeXGqenWPoqPl__-16" vertex="1">
                    <mxGeometry x="546" y="1006" width="245" height="167" as="geometry"/>
                </mxCell>
                <mxCell id="mvs7uQlptrKoOY5siquW-8" value="&lt;div&gt;- m_frameBufferId : GLuint&lt;/div&gt;&lt;div&gt;- m_renderBufferId : GLuint&lt;/div&gt;" style="text;strokeColor=none;fillColor=none;align=left;verticalAlign=top;spacingLeft=4;spacingRight=4;overflow=hidden;rotatable=0;points=[[0,0.5],[1,0.5]];portConstraint=eastwest;whiteSpace=wrap;html=1;" parent="mvs7uQlptrKoOY5siquW-7" vertex="1">
                    <mxGeometry y="26" width="245" height="38" as="geometry"/>
                </mxCell>
                <mxCell id="mvs7uQlptrKoOY5siquW-9" value="" style="line;strokeWidth=1;fillColor=none;align=left;verticalAlign=middle;spacingTop=-1;spacingLeft=3;spacingRight=3;rotatable=0;labelPosition=right;points=[];portConstraint=eastwest;strokeColor=inherit;" parent="mvs7uQlptrKoOY5siquW-7" vertex="1">
                    <mxGeometry y="64" width="245" height="8" as="geometry"/>
                </mxCell>
                <mxCell id="mvs7uQlptrKoOY5siquW-10" value="&lt;div&gt;+ Bind() : void&lt;/div&gt;&lt;div&gt;+ Unbind() : void&lt;/div&gt;&lt;div&gt;+ Load(const string&amp;amp;) : void&lt;/div&gt;&lt;div&gt;&lt;br&gt;&lt;/div&gt;&lt;div&gt;+ RenderTexture(glm::ivec2)&lt;/div&gt;&lt;div&gt;+ ~RenderTexture();&lt;/div&gt;" style="text;strokeColor=none;fillColor=none;align=left;verticalAlign=top;spacingLeft=4;spacingRight=4;overflow=hidden;rotatable=0;points=[[0,0.5],[1,0.5]];portConstraint=eastwest;whiteSpace=wrap;html=1;" parent="mvs7uQlptrKoOY5siquW-7" vertex="1">
                    <mxGeometry y="72" width="245" height="95" as="geometry"/>
                </mxCell>
                <mxCell id="VFV9XwUGxA5xjS1nipd3-7" value="Loads scenes into SDLGLWindow from main" style="edgeStyle=orthogonalEdgeStyle;rounded=0;orthogonalLoop=1;jettySize=auto;html=1;endArrow=none;startFill=0;" parent="nX7riBeXGqenWPoqPl__-16" source="VFV9XwUGxA5xjS1nipd3-3" target="nX7riBeXGqenWPoqPl__-19" edge="1">
                    <mxGeometry y="10" relative="1" as="geometry">
                        <mxPoint as="offset"/>
                    </mxGeometry>
                </mxCell>
                <mxCell id="VFV9XwUGxA5xjS1nipd3-3" value="&amp;nbsp;static SceneLoader" style="swimlane;fontStyle=1;align=center;verticalAlign=top;childLayout=stackLayout;horizontal=1;startSize=26;horizontalStack=0;resizeParent=1;resizeParentMax=0;resizeLast=0;collapsible=1;marginBottom=0;whiteSpace=wrap;html=1;" parent="nX7riBeXGqenWPoqPl__-16" vertex="1">
                    <mxGeometry x="16" y="74.5" width="190" height="137" as="geometry"/>
                </mxCell>
                <mxCell id="VFV9XwUGxA5xjS1nipd3-4" value="+ m_Scenes : Vector&amp;lt;Scene&amp;gt;" style="text;strokeColor=none;fillColor=none;align=left;verticalAlign=top;spacingLeft=4;spacingRight=4;overflow=hidden;rotatable=0;points=[[0,0.5],[1,0.5]];portConstraint=eastwest;whiteSpace=wrap;html=1;" parent="VFV9XwUGxA5xjS1nipd3-3" vertex="1">
                    <mxGeometry y="26" width="190" height="23" as="geometry"/>
                </mxCell>
                <mxCell id="VFV9XwUGxA5xjS1nipd3-5" value="" style="line;strokeWidth=1;fillColor=none;align=left;verticalAlign=middle;spacingTop=-1;spacingLeft=3;spacingRight=3;rotatable=0;labelPosition=right;points=[];portConstraint=eastwest;strokeColor=inherit;" parent="VFV9XwUGxA5xjS1nipd3-3" vertex="1">
                    <mxGeometry y="49" width="190" height="8" as="geometry"/>
                </mxCell>
                <mxCell id="VFV9XwUGxA5xjS1nipd3-6" value="&lt;div&gt;+ LoadScene(char* _path) : void&lt;/div&gt;&lt;div&gt;+ GetScene(int) : Scene*&lt;/div&gt;&lt;div&gt;&lt;br&gt;&lt;/div&gt;&lt;div&gt;+ SceneLoader()&lt;/div&gt;&lt;div&gt;+ ~SceneLoader()&lt;/div&gt;" style="text;strokeColor=none;fillColor=none;align=left;verticalAlign=top;spacingLeft=4;spacingRight=4;overflow=hidden;rotatable=0;points=[[0,0.5],[1,0.5]];portConstraint=eastwest;whiteSpace=wrap;html=1;" parent="VFV9XwUGxA5xjS1nipd3-3" vertex="1">
                    <mxGeometry y="57" width="190" height="80" as="geometry"/>
                </mxCell>
                <mxCell id="VFV9XwUGxA5xjS1nipd3-16" value="&lt;div&gt;Error message callback&lt;/div&gt;&lt;div&gt;function&lt;/div&gt;" style="edgeStyle=orthogonalEdgeStyle;rounded=0;orthogonalLoop=1;jettySize=auto;html=1;endArrow=none;startFill=0;" parent="nX7riBeXGqenWPoqPl__-16" source="VFV9XwUGxA5xjS1nipd3-12" target="nX7riBeXGqenWPoqPl__-19" edge="1">
                    <mxGeometry x="-0.5911" y="-14" relative="1" as="geometry">
                        <Array as="points">
                            <mxPoint x="406" y="305"/>
                            <mxPoint x="406" y="143"/>
                        </Array>
                        <mxPoint as="offset"/>
                    </mxGeometry>
                </mxCell>
                <mxCell id="VFV9XwUGxA5xjS1nipd3-12" value="&amp;nbsp;static OpenGLError" style="swimlane;fontStyle=1;align=center;verticalAlign=top;childLayout=stackLayout;horizontal=1;startSize=26;horizontalStack=0;resizeParent=1;resizeParentMax=0;resizeLast=0;collapsible=1;marginBottom=0;whiteSpace=wrap;html=1;" parent="nX7riBeXGqenWPoqPl__-16" vertex="1">
                    <mxGeometry x="16" y="226" width="292" height="124" as="geometry"/>
                </mxCell>
                <mxCell id="VFV9XwUGxA5xjS1nipd3-13" value="-" style="text;strokeColor=none;fillColor=none;align=left;verticalAlign=top;spacingLeft=4;spacingRight=4;overflow=hidden;rotatable=0;points=[[0,0.5],[1,0.5]];portConstraint=eastwest;whiteSpace=wrap;html=1;" parent="VFV9XwUGxA5xjS1nipd3-12" vertex="1">
                    <mxGeometry y="26" width="292" height="23" as="geometry"/>
                </mxCell>
                <mxCell id="VFV9XwUGxA5xjS1nipd3-14" value="" style="line;strokeWidth=1;fillColor=none;align=left;verticalAlign=middle;spacingTop=-1;spacingLeft=3;spacingRight=3;rotatable=0;labelPosition=right;points=[];portConstraint=eastwest;strokeColor=inherit;" parent="VFV9XwUGxA5xjS1nipd3-12" vertex="1">
                    <mxGeometry y="49" width="292" height="8" as="geometry"/>
                </mxCell>
                <mxCell id="VFV9XwUGxA5xjS1nipd3-15" value="&lt;div&gt;+ DisplayDebugMessage(GLenum, GLenum, GLuint, &lt;span style=&quot;white-space: pre;&quot;&gt;&#x9;&lt;/span&gt;&lt;span style=&quot;white-space: pre;&quot;&gt;&#x9;&lt;/span&gt;&lt;span style=&quot;white-space: pre;&quot;&gt;&#x9;&lt;/span&gt;&lt;span style=&quot;white-space: pre;&quot;&gt;&#x9;&lt;/span&gt;&lt;span style=&quot;white-space: pre;&quot;&gt;&#x9;&lt;/span&gt; GLenum, GLsizei, const &lt;span style=&quot;white-space: pre;&quot;&gt;&#x9;&lt;/span&gt;&lt;span style=&quot;white-space: pre;&quot;&gt;&#x9;&lt;/span&gt;&lt;span style=&quot;white-space: pre;&quot;&gt;&#x9;&lt;/span&gt;&lt;span style=&quot;white-space: pre;&quot;&gt;&#x9;&lt;/span&gt;&lt;span style=&quot;white-space: pre;&quot;&gt;&#x9;&lt;/span&gt; GLchar*, const void*) : void&lt;/div&gt;&lt;div&gt;+ Init() : void&lt;/div&gt;" style="text;strokeColor=none;fillColor=none;align=left;verticalAlign=top;spacingLeft=4;spacingRight=4;overflow=hidden;rotatable=0;points=[[0,0.5],[1,0.5]];portConstraint=eastwest;whiteSpace=wrap;html=1;" parent="VFV9XwUGxA5xjS1nipd3-12" vertex="1">
                    <mxGeometry y="57" width="292" height="67" as="geometry"/>
                </mxCell>
                <mxCell id="VFV9XwUGxA5xjS1nipd3-17" value="&lt;div align=&quot;left&quot;&gt;Things to add:&lt;/div&gt;&lt;div align=&quot;left&quot;&gt;- Materials&lt;/div&gt;&lt;div align=&quot;left&quot;&gt;- Entity types&lt;/div&gt;&lt;div align=&quot;left&quot;&gt;- Material property types&lt;/div&gt;" style="text;html=1;align=left;verticalAlign=middle;whiteSpace=wrap;rounded=0;" parent="nX7riBeXGqenWPoqPl__-16" vertex="1">
                    <mxGeometry x="1632" y="617" width="174" height="61" as="geometry"/>
                </mxCell>
                <mxCell id="VFV9XwUGxA5xjS1nipd3-18" value="Material" style="swimlane;fontStyle=1;align=center;verticalAlign=top;childLayout=stackLayout;horizontal=1;startSize=26;horizontalStack=0;resizeParent=1;resizeParentMax=0;resizeLast=0;collapsible=1;marginBottom=0;whiteSpace=wrap;html=1;" parent="nX7riBeXGqenWPoqPl__-16" vertex="1">
                    <mxGeometry x="1491" y="730" width="285" height="161" as="geometry"/>
                </mxCell>
                <mxCell id="VFV9XwUGxA5xjS1nipd3-19" value="&lt;div&gt;- m_Shader : ShaderProgram*&lt;/div&gt;&lt;div&gt;&amp;nbsp;contains various flags and values used and uploaded lazily to shader program&lt;/div&gt;" style="text;strokeColor=none;fillColor=none;align=left;verticalAlign=top;spacingLeft=4;spacingRight=4;overflow=hidden;rotatable=0;points=[[0,0.5],[1,0.5]];portConstraint=eastwest;whiteSpace=wrap;html=1;" parent="VFV9XwUGxA5xjS1nipd3-18" vertex="1">
                    <mxGeometry y="26" width="285" height="61" as="geometry"/>
                </mxCell>
                <mxCell id="VFV9XwUGxA5xjS1nipd3-20" value="" style="line;strokeWidth=1;fillColor=none;align=left;verticalAlign=middle;spacingTop=-1;spacingLeft=3;spacingRight=3;rotatable=0;labelPosition=right;points=[];portConstraint=eastwest;strokeColor=inherit;" parent="VFV9XwUGxA5xjS1nipd3-18" vertex="1">
                    <mxGeometry y="87" width="285" height="8" as="geometry"/>
                </mxCell>
                <mxCell id="VFV9XwUGxA5xjS1nipd3-21" value="&lt;div&gt;+ Use() : void&lt;/div&gt;&lt;div&gt;&lt;br&gt;&lt;/div&gt;&lt;div&gt;+ Material(ShaderProgram*)&lt;/div&gt;&lt;div&gt;+ ~Material&lt;/div&gt;" style="text;strokeColor=none;fillColor=none;align=left;verticalAlign=top;spacingLeft=4;spacingRight=4;overflow=hidden;rotatable=0;points=[[0,0.5],[1,0.5]];portConstraint=eastwest;whiteSpace=wrap;html=1;" parent="VFV9XwUGxA5xjS1nipd3-18" vertex="1">
                    <mxGeometry y="95" width="285" height="66" as="geometry"/>
                </mxCell>
                <mxCell id="VFV9XwUGxA5xjS1nipd3-22" value="Future" style="swimlane;whiteSpace=wrap;html=1;" parent="1" vertex="1">
                    <mxGeometry x="-4604" y="-155" width="2139" height="1474" as="geometry"/>
                </mxCell>
                <mxCell id="VFV9XwUGxA5xjS1nipd3-23" style="edgeStyle=orthogonalEdgeStyle;rounded=0;orthogonalLoop=1;jettySize=auto;html=1;endArrow=diamondThin;endFill=1;endSize=26;" parent="VFV9XwUGxA5xjS1nipd3-22" source="VFV9XwUGxA5xjS1nipd3-24" target="VFV9XwUGxA5xjS1nipd3-50" edge="1">
                    <mxGeometry relative="1" as="geometry"/>
                </mxCell>
                <mxCell id="VFV9XwUGxA5xjS1nipd3-24" value="&lt;span style=&quot;background-color: transparent;&quot;&gt;SDLGLWindow&lt;/span&gt;" style="swimlane;fontStyle=1;align=center;verticalAlign=top;childLayout=stackLayout;horizontal=1;startSize=26;horizontalStack=0;resizeParent=1;resizeParentMax=0;resizeLast=0;collapsible=1;marginBottom=0;whiteSpace=wrap;html=1;" parent="VFV9XwUGxA5xjS1nipd3-22" vertex="1">
                    <mxGeometry x="440" y="60" width="174" height="166" as="geometry"/>
                </mxCell>
                <mxCell id="VFV9XwUGxA5xjS1nipd3-25" value="&lt;div&gt;&lt;font style=&quot;color: light-dark(rgb(0, 0, 0), rgb(255, 252, 252));&quot;&gt;- m_Window : SDL_Window*&lt;/font&gt;&lt;/div&gt;&lt;div&gt;- m_currentScene : Scene&lt;/div&gt;&lt;div&gt;&lt;font style=&quot;color: light-dark(rgb(0, 0, 0), rgb(255, 252, 252));&quot;&gt;+ bool m_Quit&lt;/font&gt;&lt;/div&gt;" style="text;strokeColor=none;fillColor=none;align=left;verticalAlign=top;spacingLeft=4;spacingRight=4;overflow=hidden;rotatable=0;points=[[0,0.5],[1,0.5]];portConstraint=eastwest;whiteSpace=wrap;html=1;" parent="VFV9XwUGxA5xjS1nipd3-24" vertex="1">
                    <mxGeometry y="26" width="174" height="52" as="geometry"/>
                </mxCell>
                <mxCell id="VFV9XwUGxA5xjS1nipd3-26" value="" style="line;strokeWidth=1;fillColor=none;align=left;verticalAlign=middle;spacingTop=-1;spacingLeft=3;spacingRight=3;rotatable=0;labelPosition=right;points=[];portConstraint=eastwest;strokeColor=inherit;" parent="VFV9XwUGxA5xjS1nipd3-24" vertex="1">
                    <mxGeometry y="78" width="174" height="8" as="geometry"/>
                </mxCell>
                <mxCell id="VFV9XwUGxA5xjS1nipd3-27" value="&lt;div&gt;+ Update() : void&lt;/div&gt;&lt;div&gt;+ AddScene(Scene*) : void&lt;/div&gt;&lt;div&gt;&lt;br&gt;&lt;/div&gt;&lt;div&gt;+ SDLGLWindow(char* int, int)&lt;/div&gt;&lt;div&gt;+ ~SDLGLWindow()&lt;/div&gt;" style="text;strokeColor=none;fillColor=none;align=left;verticalAlign=top;spacingLeft=4;spacingRight=4;overflow=hidden;rotatable=0;points=[[0,0.5],[1,0.5]];portConstraint=eastwest;whiteSpace=wrap;html=1;" parent="VFV9XwUGxA5xjS1nipd3-24" vertex="1">
                    <mxGeometry y="86" width="174" height="80" as="geometry"/>
                </mxCell>
                <mxCell id="VFV9XwUGxA5xjS1nipd3-28" value="Texture" style="swimlane;fontStyle=1;align=center;verticalAlign=top;childLayout=stackLayout;horizontal=1;startSize=26;horizontalStack=0;resizeParent=1;resizeParentMax=0;resizeLast=0;collapsible=1;marginBottom=0;whiteSpace=wrap;html=1;" parent="VFV9XwUGxA5xjS1nipd3-22" vertex="1">
                    <mxGeometry x="546" y="742" width="245" height="219" as="geometry"/>
                </mxCell>
                <mxCell id="VFV9XwUGxA5xjS1nipd3-29" value="&lt;font style=&quot;color: light-dark(rgb(0, 0, 0), rgb(255, 255, 255));&quot;&gt;- m_id : GLuint&lt;/font&gt;&lt;div&gt;&lt;font style=&quot;color: light-dark(rgb(0, 0, 0), rgb(255, 255, 255));&quot;&gt;- m_data : vector&amp;lt;uchar&amp;gt;&lt;/font&gt;&lt;/div&gt;&lt;div&gt;&lt;font style=&quot;color: light-dark(rgb(0, 0, 0), rgb(255, 255, 255));&quot;&gt;- m_size : ivec2&lt;/font&gt;&lt;/div&gt;&lt;div&gt;&lt;font style=&quot;color: light-dark(rgb(0, 0, 0), rgb(255, 255, 255));&quot;&gt;- m_dirty : bool&lt;/font&gt;&lt;/div&gt;" style="text;strokeColor=none;fillColor=none;align=left;verticalAlign=top;spacingLeft=4;spacingRight=4;overflow=hidden;rotatable=0;points=[[0,0.5],[1,0.5]];portConstraint=eastwest;whiteSpace=wrap;html=1;" parent="VFV9XwUGxA5xjS1nipd3-28" vertex="1">
                    <mxGeometry y="26" width="245" height="60" as="geometry"/>
                </mxCell>
                <mxCell id="VFV9XwUGxA5xjS1nipd3-30" value="" style="line;strokeWidth=1;fillColor=none;align=left;verticalAlign=middle;spacingTop=-1;spacingLeft=3;spacingRight=3;rotatable=0;labelPosition=right;points=[];portConstraint=eastwest;strokeColor=inherit;" parent="VFV9XwUGxA5xjS1nipd3-28" vertex="1">
                    <mxGeometry y="86" width="245" height="8" as="geometry"/>
                </mxCell>
                <mxCell id="VFV9XwUGxA5xjS1nipd3-31" value="&lt;font style=&quot;color: light-dark(rgb(0, 0, 0), rgb(255, 255, 255));&quot;&gt;+ Texture(const string&amp;amp;)&lt;/font&gt;&lt;div&gt;&lt;font style=&quot;color: light-dark(rgb(0, 0, 0), rgb(255, 255, 255));&quot;&gt;+ Texture(ivec2)&lt;/font&gt;&lt;/div&gt;&lt;div&gt;&lt;font style=&quot;color: light-dark(rgb(0, 0, 0), rgb(255, 255, 255));&quot;&gt;+ Size(ivec2) : void&lt;/font&gt;&lt;/div&gt;&lt;div&gt;&lt;font style=&quot;color: light-dark(rgb(0, 0, 0), rgb(255, 255, 255));&quot;&gt;+ Size() : const ivec2&lt;/font&gt;&lt;/div&gt;&lt;div&gt;&lt;font style=&quot;color: light-dark(rgb(0, 0, 0), rgb(255, 255, 255));&quot;&gt;+ &lt;u&gt;Load(const string&amp;amp;) : void&lt;/u&gt;&lt;/font&gt;&lt;/div&gt;&lt;div&gt;&lt;font style=&quot;color: light-dark(rgb(0, 0, 0), rgb(255, 255, 255));&quot;&gt;+ Pixel(ivec2, vec4) : void&lt;/font&gt;&lt;/div&gt;&lt;div&gt;&lt;font style=&quot;color: light-dark(rgb(0, 0, 0), rgb(255, 255, 255));&quot;&gt;+ Pixel(ivec2) : const vec4&lt;/font&gt;&lt;/div&gt;&lt;div&gt;&lt;font style=&quot;color: light-dark(rgb(0, 0, 0), rgb(255, 255, 255));&quot;&gt;+ GetID() : GLuint&lt;/font&gt;&lt;/div&gt;" style="text;strokeColor=none;fillColor=none;align=left;verticalAlign=top;spacingLeft=4;spacingRight=4;overflow=hidden;rotatable=0;points=[[0,0.5],[1,0.5]];portConstraint=eastwest;whiteSpace=wrap;html=1;" parent="VFV9XwUGxA5xjS1nipd3-28" vertex="1">
                    <mxGeometry y="94" width="245" height="125" as="geometry"/>
                </mxCell>
                <mxCell id="VFV9XwUGxA5xjS1nipd3-32" value="ShaderProgram" style="swimlane;fontStyle=1;align=center;verticalAlign=top;childLayout=stackLayout;horizontal=1;startSize=26;horizontalStack=0;resizeParent=1;resizeParentMax=0;resizeLast=0;collapsible=1;marginBottom=0;whiteSpace=wrap;html=1;" parent="VFV9XwUGxA5xjS1nipd3-22" vertex="1">
                    <mxGeometry x="1214" y="954" width="285" height="196" as="geometry"/>
                </mxCell>
                <mxCell id="VFV9XwUGxA5xjS1nipd3-33" value="- m_id : GLuint" style="text;strokeColor=none;fillColor=none;align=left;verticalAlign=top;spacingLeft=4;spacingRight=4;overflow=hidden;rotatable=0;points=[[0,0.5],[1,0.5]];portConstraint=eastwest;whiteSpace=wrap;html=1;" parent="VFV9XwUGxA5xjS1nipd3-32" vertex="1">
                    <mxGeometry y="26" width="285" height="23" as="geometry"/>
                </mxCell>
                <mxCell id="VFV9XwUGxA5xjS1nipd3-34" value="" style="line;strokeWidth=1;fillColor=none;align=left;verticalAlign=middle;spacingTop=-1;spacingLeft=3;spacingRight=3;rotatable=0;labelPosition=right;points=[];portConstraint=eastwest;strokeColor=inherit;" parent="VFV9XwUGxA5xjS1nipd3-32" vertex="1">
                    <mxGeometry y="49" width="285" height="8" as="geometry"/>
                </mxCell>
                <mxCell id="VFV9XwUGxA5xjS1nipd3-35" value="&lt;div&gt;&lt;font style=&quot;color: light-dark(rgb(0, 0, 0), rgb(255, 255, 255));&quot;&gt;+ Use() : void&lt;/font&gt;&lt;/div&gt;&lt;div&gt;&lt;font style=&quot;color: light-dark(rgb(0, 0, 0), rgb(255, 255, 255));&quot;&gt;+ SetUniform(const string&amp;amp;, vec4) : void&lt;/font&gt;&lt;/div&gt;&lt;font style=&quot;color: light-dark(rgb(0, 0, 0), rgb(255, 255, 255));&quot;&gt;+ SetUniform(const string&amp;amp;, vec3) : void&lt;/font&gt;&lt;div&gt;&lt;font style=&quot;color: light-dark(rgb(0, 0, 0), rgb(255, 255, 255));&quot;&gt;+ SetUniform(const string&amp;amp;, float) : void&lt;/font&gt;&lt;/div&gt;&lt;div&gt;&lt;font style=&quot;color: light-dark(rgb(0, 0, 0), rgb(255, 255, 255));&quot;&gt;&lt;br&gt;&lt;/font&gt;&lt;/div&gt;&lt;div&gt;&lt;font style=&quot;color: light-dark(rgb(0, 0, 0), rgb(255, 255, 255));&quot;&gt;+ GetID() : GLuint&lt;/font&gt;&lt;/div&gt;&lt;div&gt;&lt;font style=&quot;color: light-dark(rgb(0, 0, 0), rgb(255, 255, 255));&quot;&gt;&lt;br&gt;&lt;/font&gt;&lt;/div&gt;&lt;div&gt;&lt;font style=&quot;color: light-dark(rgb(0, 0, 0), rgb(255, 255, 255));&quot;&gt;+ ShaderProgram(const GLchar*, const GLchar*)&lt;/font&gt;&lt;/div&gt;&lt;div&gt;&lt;font style=&quot;color: light-dark(rgb(0, 0, 0), rgb(255, 255, 255));&quot;&gt;+ ~ShaderProgram()&lt;/font&gt;&lt;/div&gt;" style="text;strokeColor=none;fillColor=none;align=left;verticalAlign=top;spacingLeft=4;spacingRight=4;overflow=hidden;rotatable=0;points=[[0,0.5],[1,0.5]];portConstraint=eastwest;whiteSpace=wrap;html=1;" parent="VFV9XwUGxA5xjS1nipd3-32" vertex="1">
                    <mxGeometry y="57" width="285" height="139" as="geometry"/>
                </mxCell>
                <mxCell id="VFV9XwUGxA5xjS1nipd3-36" style="edgeStyle=orthogonalEdgeStyle;rounded=0;orthogonalLoop=1;jettySize=auto;html=1;endArrow=diamondThin;endFill=1;endSize=26;" parent="VFV9XwUGxA5xjS1nipd3-22" source="VFV9XwUGxA5xjS1nipd3-40" target="VFV9XwUGxA5xjS1nipd3-44" edge="1">
                    <mxGeometry relative="1" as="geometry">
                        <Array as="points">
                            <mxPoint x="848" y="633"/>
                            <mxPoint x="848" y="633"/>
                        </Array>
                    </mxGeometry>
                </mxCell>
                <mxCell id="VFV9XwUGxA5xjS1nipd3-37" style="edgeStyle=orthogonalEdgeStyle;rounded=0;orthogonalLoop=1;jettySize=auto;html=1;endArrow=diamondThin;endFill=1;endSize=26;" parent="VFV9XwUGxA5xjS1nipd3-22" source="VFV9XwUGxA5xjS1nipd3-40" target="VFV9XwUGxA5xjS1nipd3-78" edge="1">
                    <mxGeometry relative="1" as="geometry"/>
                </mxCell>
                <mxCell id="VFV9XwUGxA5xjS1nipd3-38" style="edgeStyle=orthogonalEdgeStyle;rounded=0;orthogonalLoop=1;jettySize=auto;html=1;endSize=26;endArrow=diamondThin;endFill=1;entryX=0.5;entryY=0;entryDx=0;entryDy=0;" parent="VFV9XwUGxA5xjS1nipd3-22" source="VFV9XwUGxA5xjS1nipd3-40" target="VFV9XwUGxA5xjS1nipd3-58" edge="1">
                    <mxGeometry relative="1" as="geometry">
                        <Array as="points">
                            <mxPoint x="905" y="685"/>
                            <mxPoint x="1085" y="685"/>
                        </Array>
                    </mxGeometry>
                </mxCell>
                <mxCell id="VFV9XwUGxA5xjS1nipd3-39" style="edgeStyle=orthogonalEdgeStyle;rounded=0;orthogonalLoop=1;jettySize=auto;html=1;endSize=26;endArrow=diamondThin;endFill=1;" parent="VFV9XwUGxA5xjS1nipd3-22" source="VFV9XwUGxA5xjS1nipd3-40" target="VFV9XwUGxA5xjS1nipd3-28" edge="1">
                    <mxGeometry relative="1" as="geometry">
                        <Array as="points">
                            <mxPoint x="905" y="685"/>
                            <mxPoint x="671" y="685"/>
                        </Array>
                    </mxGeometry>
                </mxCell>
                <mxCell id="VFV9XwUGxA5xjS1nipd3-40" value="Entity" style="swimlane;fontStyle=1;align=center;verticalAlign=top;childLayout=stackLayout;horizontal=1;startSize=26;horizontalStack=0;resizeParent=1;resizeParentMax=0;resizeLast=0;collapsible=1;marginBottom=0;whiteSpace=wrap;html=1;" parent="VFV9XwUGxA5xjS1nipd3-22" vertex="1">
                    <mxGeometry x="778.13" y="383" width="253.75" height="265" as="geometry"/>
                </mxCell>
                <mxCell id="VFV9XwUGxA5xjS1nipd3-41" value="&lt;div&gt;- m_Transform : Transform&lt;/div&gt;&lt;div&gt;- m_Model : Model*&lt;/div&gt;&lt;div&gt;- m_Texture : Texture*&lt;/div&gt;&lt;div&gt;- m_Material : Material*&lt;/div&gt;&lt;div&gt;- m_Collider : Collider&lt;/div&gt;" style="text;strokeColor=none;fillColor=none;align=left;verticalAlign=top;spacingLeft=4;spacingRight=4;overflow=hidden;rotatable=0;points=[[0,0.5],[1,0.5]];portConstraint=eastwest;whiteSpace=wrap;html=1;" parent="VFV9XwUGxA5xjS1nipd3-40" vertex="1">
                    <mxGeometry y="26" width="253.75" height="79" as="geometry"/>
                </mxCell>
                <mxCell id="VFV9XwUGxA5xjS1nipd3-42" value="" style="line;strokeWidth=1;fillColor=none;align=left;verticalAlign=middle;spacingTop=-1;spacingLeft=3;spacingRight=3;rotatable=0;labelPosition=right;points=[];portConstraint=eastwest;strokeColor=inherit;" parent="VFV9XwUGxA5xjS1nipd3-40" vertex="1">
                    <mxGeometry y="105" width="253.75" height="8" as="geometry"/>
                </mxCell>
                <mxCell id="VFV9XwUGxA5xjS1nipd3-43" value="&lt;div&gt;+ Draw(Camera*) : void&lt;/div&gt;&lt;div&gt;&lt;br&gt;&lt;/div&gt;&lt;div&gt;+ Move(vec3) : void&lt;/div&gt;&lt;div&gt;+ Rotate(vec3) : void&lt;/div&gt;&lt;div&gt;+ Scale(vec3) : void&lt;/div&gt;&lt;div&gt;&lt;br&gt;&lt;/div&gt;&lt;div&gt;+ Entity(char* _modelPath, char* _texPath)&lt;/div&gt;&lt;div&gt;+ Entity(vec3)&lt;/div&gt;&lt;div&gt;+ Entity(Transform, char*, char*, char*, char*)&lt;/div&gt;&lt;div&gt;+ ~Entity()&lt;/div&gt;" style="text;strokeColor=none;fillColor=none;align=left;verticalAlign=top;spacingLeft=4;spacingRight=4;overflow=hidden;rotatable=0;points=[[0,0.5],[1,0.5]];portConstraint=eastwest;whiteSpace=wrap;html=1;" parent="VFV9XwUGxA5xjS1nipd3-40" vertex="1">
                    <mxGeometry y="113" width="253.75" height="152" as="geometry"/>
                </mxCell>
                <mxCell id="VFV9XwUGxA5xjS1nipd3-44" value="Model" style="swimlane;fontStyle=1;align=center;verticalAlign=top;childLayout=stackLayout;horizontal=1;startSize=26;horizontalStack=0;resizeParent=1;resizeParentMax=0;resizeLast=0;collapsible=1;marginBottom=0;whiteSpace=wrap;html=1;" parent="VFV9XwUGxA5xjS1nipd3-22" vertex="1">
                    <mxGeometry x="825" y="742" width="160" height="137" as="geometry"/>
                </mxCell>
                <mxCell id="VFV9XwUGxA5xjS1nipd3-45" value="&lt;div&gt;- m_Faces : Vector&amp;lt;Face&amp;gt;&lt;/div&gt;&lt;div&gt;- m_vaoID : GLuint&lt;/div&gt;&lt;div&gt;- m_vboID : GLuint&lt;/div&gt;&lt;div&gt;- m_dirty : bool&lt;/div&gt;" style="text;strokeColor=none;fillColor=none;align=left;verticalAlign=top;spacingLeft=4;spacingRight=4;overflow=hidden;rotatable=0;points=[[0,0.5],[1,0.5]];portConstraint=eastwest;whiteSpace=wrap;html=1;" parent="VFV9XwUGxA5xjS1nipd3-44" vertex="1">
                    <mxGeometry y="26" width="160" height="67" as="geometry"/>
                </mxCell>
                <mxCell id="VFV9XwUGxA5xjS1nipd3-46" value="" style="line;strokeWidth=1;fillColor=none;align=left;verticalAlign=middle;spacingTop=-1;spacingLeft=3;spacingRight=3;rotatable=0;labelPosition=right;points=[];portConstraint=eastwest;strokeColor=inherit;" parent="VFV9XwUGxA5xjS1nipd3-44" vertex="1">
                    <mxGeometry y="93" width="160" height="8" as="geometry"/>
                </mxCell>
                <mxCell id="VFV9XwUGxA5xjS1nipd3-47" value="&lt;div&gt;+ GetVertexCount() : int&lt;/div&gt;&lt;div&gt;+ GetVAO() : GLuint&lt;/div&gt;" style="text;strokeColor=none;fillColor=none;align=left;verticalAlign=top;spacingLeft=4;spacingRight=4;overflow=hidden;rotatable=0;points=[[0,0.5],[1,0.5]];portConstraint=eastwest;whiteSpace=wrap;html=1;" parent="VFV9XwUGxA5xjS1nipd3-44" vertex="1">
                    <mxGeometry y="101" width="160" height="36" as="geometry"/>
                </mxCell>
                <mxCell id="VFV9XwUGxA5xjS1nipd3-48" style="edgeStyle=orthogonalEdgeStyle;rounded=0;orthogonalLoop=1;jettySize=auto;html=1;endArrow=diamondThin;endFill=1;endSize=26;" parent="VFV9XwUGxA5xjS1nipd3-22" source="VFV9XwUGxA5xjS1nipd3-50" target="VFV9XwUGxA5xjS1nipd3-40" edge="1">
                    <mxGeometry relative="1" as="geometry"/>
                </mxCell>
                <mxCell id="VFV9XwUGxA5xjS1nipd3-49" style="edgeStyle=orthogonalEdgeStyle;rounded=0;orthogonalLoop=1;jettySize=auto;html=1;endArrow=diamondThin;endFill=1;endSize=26;" parent="VFV9XwUGxA5xjS1nipd3-22" source="VFV9XwUGxA5xjS1nipd3-50" target="VFV9XwUGxA5xjS1nipd3-54" edge="1">
                    <mxGeometry relative="1" as="geometry">
                        <Array as="points">
                            <mxPoint x="735" y="407"/>
                            <mxPoint x="735" y="280"/>
                        </Array>
                    </mxGeometry>
                </mxCell>
                <mxCell id="VFV9XwUGxA5xjS1nipd3-50" value="Scene" style="swimlane;fontStyle=1;align=center;verticalAlign=top;childLayout=stackLayout;horizontal=1;startSize=26;horizontalStack=0;resizeParent=1;resizeParentMax=0;resizeLast=0;collapsible=1;marginBottom=0;whiteSpace=wrap;html=1;" parent="VFV9XwUGxA5xjS1nipd3-22" vertex="1">
                    <mxGeometry x="426.5" y="348" width="201" height="168" as="geometry"/>
                </mxCell>
                <mxCell id="VFV9XwUGxA5xjS1nipd3-51" value="&lt;div&gt;- m_Entities : Vector&amp;lt;Entity&amp;gt;&lt;/div&gt;&lt;div&gt;- m_Camera : Camera&lt;/div&gt;" style="text;strokeColor=none;fillColor=none;align=left;verticalAlign=top;spacingLeft=4;spacingRight=4;overflow=hidden;rotatable=0;points=[[0,0.5],[1,0.5]];portConstraint=eastwest;whiteSpace=wrap;html=1;" parent="VFV9XwUGxA5xjS1nipd3-50" vertex="1">
                    <mxGeometry y="26" width="201" height="38" as="geometry"/>
                </mxCell>
                <mxCell id="VFV9XwUGxA5xjS1nipd3-52" value="" style="line;strokeWidth=1;fillColor=none;align=left;verticalAlign=middle;spacingTop=-1;spacingLeft=3;spacingRight=3;rotatable=0;labelPosition=right;points=[];portConstraint=eastwest;strokeColor=inherit;" parent="VFV9XwUGxA5xjS1nipd3-50" vertex="1">
                    <mxGeometry y="64" width="201" height="8" as="geometry"/>
                </mxCell>
                <mxCell id="VFV9XwUGxA5xjS1nipd3-53" value="&lt;div&gt;+ AddEntity(&amp;amp;Entity) : void&lt;/div&gt;&lt;div&gt;&lt;br&gt;&lt;/div&gt;&lt;div&gt;+ Update() : void&lt;/div&gt;&lt;div&gt;&lt;br&gt;&lt;/div&gt;&lt;div&gt;+ Scene()&lt;/div&gt;&lt;div&gt;+ ~Scene()&lt;/div&gt;" style="text;strokeColor=none;fillColor=none;align=left;verticalAlign=top;spacingLeft=4;spacingRight=4;overflow=hidden;rotatable=0;points=[[0,0.5],[1,0.5]];portConstraint=eastwest;whiteSpace=wrap;html=1;" parent="VFV9XwUGxA5xjS1nipd3-50" vertex="1">
                    <mxGeometry y="72" width="201" height="96" as="geometry"/>
                </mxCell>
                <mxCell id="VFV9XwUGxA5xjS1nipd3-54" value="&lt;div&gt;&lt;span style=&quot;background-color: transparent;&quot;&gt;Camera&lt;/span&gt;&lt;/div&gt;" style="swimlane;fontStyle=1;align=center;verticalAlign=top;childLayout=stackLayout;horizontal=1;startSize=26;horizontalStack=0;resizeParent=1;resizeParentMax=0;resizeLast=0;collapsible=1;marginBottom=0;whiteSpace=wrap;html=1;" parent="VFV9XwUGxA5xjS1nipd3-22" vertex="1">
                    <mxGeometry x="791" y="211.5" width="228" height="156" as="geometry"/>
                </mxCell>
                <mxCell id="VFV9XwUGxA5xjS1nipd3-55" value="&lt;div&gt;- m_Transform : Transform&lt;/div&gt;&lt;div&gt;- m_Projection : mat4&lt;/div&gt;" style="text;strokeColor=none;fillColor=none;align=left;verticalAlign=top;spacingLeft=4;spacingRight=4;overflow=hidden;rotatable=0;points=[[0,0.5],[1,0.5]];portConstraint=eastwest;whiteSpace=wrap;html=1;" parent="VFV9XwUGxA5xjS1nipd3-54" vertex="1">
                    <mxGeometry y="26" width="228" height="41" as="geometry"/>
                </mxCell>
                <mxCell id="VFV9XwUGxA5xjS1nipd3-56" value="" style="line;strokeWidth=1;fillColor=none;align=left;verticalAlign=middle;spacingTop=-1;spacingLeft=3;spacingRight=3;rotatable=0;labelPosition=right;points=[];portConstraint=eastwest;strokeColor=inherit;" parent="VFV9XwUGxA5xjS1nipd3-54" vertex="1">
                    <mxGeometry y="67" width="228" height="8" as="geometry"/>
                </mxCell>
                <mxCell id="VFV9XwUGxA5xjS1nipd3-57" value="&lt;div&gt;&lt;span style=&quot;background-color: transparent; color: rgb(63, 63, 63);&quot;&gt;- CalculateView()&lt;/span&gt;&lt;/div&gt;&lt;div&gt;+ Use()&lt;/div&gt;&lt;div&gt;&lt;br&gt;&lt;/div&gt;&lt;div&gt;+ Camera()&lt;/div&gt;&lt;div&gt;+ ~Camera()&lt;/div&gt;" style="text;strokeColor=none;fillColor=none;align=left;verticalAlign=top;spacingLeft=4;spacingRight=4;overflow=hidden;rotatable=0;points=[[0,0.5],[1,0.5]];portConstraint=eastwest;whiteSpace=wrap;html=1;" parent="VFV9XwUGxA5xjS1nipd3-54" vertex="1">
                    <mxGeometry y="75" width="228" height="81" as="geometry"/>
                </mxCell>
                <mxCell id="VFV9XwUGxA5xjS1nipd3-58" value="Transform" style="swimlane;fontStyle=1;align=center;verticalAlign=top;childLayout=stackLayout;horizontal=1;startSize=26;horizontalStack=0;resizeParent=1;resizeParentMax=0;resizeLast=0;collapsible=1;marginBottom=0;whiteSpace=wrap;html=1;" parent="VFV9XwUGxA5xjS1nipd3-22" vertex="1">
                    <mxGeometry x="1005" y="742" width="160" height="264" as="geometry"/>
                </mxCell>
                <mxCell id="VFV9XwUGxA5xjS1nipd3-59" value="&lt;div&gt;- m_Position : vec3&lt;/div&gt;&lt;div&gt;- m_Rotation : vec4&lt;/div&gt;&lt;div&gt;- m_Scale : vec3&lt;/div&gt;&lt;div&gt;- m_Up : vec3&lt;/div&gt;&lt;div&gt;- m_Forward : vec3&lt;/div&gt;" style="text;strokeColor=none;fillColor=none;align=left;verticalAlign=top;spacingLeft=4;spacingRight=4;overflow=hidden;rotatable=0;points=[[0,0.5],[1,0.5]];portConstraint=eastwest;whiteSpace=wrap;html=1;" parent="VFV9XwUGxA5xjS1nipd3-58" vertex="1">
                    <mxGeometry y="26" width="160" height="78" as="geometry"/>
                </mxCell>
                <mxCell id="VFV9XwUGxA5xjS1nipd3-60" value="" style="line;strokeWidth=1;fillColor=none;align=left;verticalAlign=middle;spacingTop=-1;spacingLeft=3;spacingRight=3;rotatable=0;labelPosition=right;points=[];portConstraint=eastwest;strokeColor=inherit;" parent="VFV9XwUGxA5xjS1nipd3-58" vertex="1">
                    <mxGeometry y="104" width="160" height="8" as="geometry"/>
                </mxCell>
                <mxCell id="VFV9XwUGxA5xjS1nipd3-61" value="&lt;div&gt;+ Translate(vec3)&lt;/div&gt;&lt;div&gt;+ Rotate(vec3 _euler)&lt;/div&gt;&lt;div&gt;+ Rotate(vec4)&lt;/div&gt;&lt;div&gt;&lt;br&gt;&lt;/div&gt;&lt;div&gt;+ Position() : vec3&lt;/div&gt;&lt;div&gt;+ Rotation() : vec3&lt;/div&gt;&lt;div&gt;+ Scale() : vec3&lt;/div&gt;&lt;div&gt;&lt;br&gt;&lt;/div&gt;&lt;div&gt;+ Transform()&lt;/div&gt;&lt;div&gt;+ ~Transform()&lt;/div&gt;" style="text;strokeColor=none;fillColor=none;align=left;verticalAlign=top;spacingLeft=4;spacingRight=4;overflow=hidden;rotatable=0;points=[[0,0.5],[1,0.5]];portConstraint=eastwest;whiteSpace=wrap;html=1;" parent="VFV9XwUGxA5xjS1nipd3-58" vertex="1">
                    <mxGeometry y="112" width="160" height="152" as="geometry"/>
                </mxCell>
                <mxCell id="VFV9XwUGxA5xjS1nipd3-62" style="edgeStyle=orthogonalEdgeStyle;rounded=0;orthogonalLoop=1;jettySize=auto;html=1;" parent="VFV9XwUGxA5xjS1nipd3-22" source="VFV9XwUGxA5xjS1nipd3-63" target="VFV9XwUGxA5xjS1nipd3-28" edge="1">
                    <mxGeometry relative="1" as="geometry"/>
                </mxCell>
                <mxCell id="VFV9XwUGxA5xjS1nipd3-63" value="RenderTexture : Texture" style="swimlane;fontStyle=1;align=center;verticalAlign=top;childLayout=stackLayout;horizontal=1;startSize=26;horizontalStack=0;resizeParent=1;resizeParentMax=0;resizeLast=0;collapsible=1;marginBottom=0;whiteSpace=wrap;html=1;" parent="VFV9XwUGxA5xjS1nipd3-22" vertex="1">
                    <mxGeometry x="546" y="1006" width="245" height="167" as="geometry"/>
                </mxCell>
                <mxCell id="VFV9XwUGxA5xjS1nipd3-64" value="&lt;div&gt;- m_frameBufferId : GLuint&lt;/div&gt;&lt;div&gt;- m_renderBufferId : GLuint&lt;/div&gt;" style="text;strokeColor=none;fillColor=none;align=left;verticalAlign=top;spacingLeft=4;spacingRight=4;overflow=hidden;rotatable=0;points=[[0,0.5],[1,0.5]];portConstraint=eastwest;whiteSpace=wrap;html=1;" parent="VFV9XwUGxA5xjS1nipd3-63" vertex="1">
                    <mxGeometry y="26" width="245" height="38" as="geometry"/>
                </mxCell>
                <mxCell id="VFV9XwUGxA5xjS1nipd3-65" value="" style="line;strokeWidth=1;fillColor=none;align=left;verticalAlign=middle;spacingTop=-1;spacingLeft=3;spacingRight=3;rotatable=0;labelPosition=right;points=[];portConstraint=eastwest;strokeColor=inherit;" parent="VFV9XwUGxA5xjS1nipd3-63" vertex="1">
                    <mxGeometry y="64" width="245" height="8" as="geometry"/>
                </mxCell>
                <mxCell id="VFV9XwUGxA5xjS1nipd3-66" value="&lt;div&gt;+ Bind() : void&lt;/div&gt;&lt;div&gt;+ Unbind() : void&lt;/div&gt;&lt;div&gt;+ Load(const string&amp;amp;) : void&lt;/div&gt;&lt;div&gt;&lt;br&gt;&lt;/div&gt;&lt;div&gt;+ RenderTexture(glm::ivec2)&lt;/div&gt;&lt;div&gt;+ ~RenderTexture();&lt;/div&gt;" style="text;strokeColor=none;fillColor=none;align=left;verticalAlign=top;spacingLeft=4;spacingRight=4;overflow=hidden;rotatable=0;points=[[0,0.5],[1,0.5]];portConstraint=eastwest;whiteSpace=wrap;html=1;" parent="VFV9XwUGxA5xjS1nipd3-63" vertex="1">
                    <mxGeometry y="72" width="245" height="95" as="geometry"/>
                </mxCell>
                <mxCell id="VFV9XwUGxA5xjS1nipd3-67" value="Loads scenes into SDLGLWindow from main" style="edgeStyle=orthogonalEdgeStyle;rounded=0;orthogonalLoop=1;jettySize=auto;html=1;endArrow=none;startFill=0;" parent="VFV9XwUGxA5xjS1nipd3-22" source="VFV9XwUGxA5xjS1nipd3-68" target="VFV9XwUGxA5xjS1nipd3-24" edge="1">
                    <mxGeometry y="10" relative="1" as="geometry">
                        <mxPoint as="offset"/>
                    </mxGeometry>
                </mxCell>
                <mxCell id="VFV9XwUGxA5xjS1nipd3-68" value="&amp;nbsp;static SceneLoader" style="swimlane;fontStyle=1;align=center;verticalAlign=top;childLayout=stackLayout;horizontal=1;startSize=26;horizontalStack=0;resizeParent=1;resizeParentMax=0;resizeLast=0;collapsible=1;marginBottom=0;whiteSpace=wrap;html=1;" parent="VFV9XwUGxA5xjS1nipd3-22" vertex="1">
                    <mxGeometry x="16" y="74.5" width="190" height="137" as="geometry"/>
                </mxCell>
                <mxCell id="VFV9XwUGxA5xjS1nipd3-69" value="+ m_Scenes : Vector&amp;lt;Scene&amp;gt;" style="text;strokeColor=none;fillColor=none;align=left;verticalAlign=top;spacingLeft=4;spacingRight=4;overflow=hidden;rotatable=0;points=[[0,0.5],[1,0.5]];portConstraint=eastwest;whiteSpace=wrap;html=1;" parent="VFV9XwUGxA5xjS1nipd3-68" vertex="1">
                    <mxGeometry y="26" width="190" height="23" as="geometry"/>
                </mxCell>
                <mxCell id="VFV9XwUGxA5xjS1nipd3-70" value="" style="line;strokeWidth=1;fillColor=none;align=left;verticalAlign=middle;spacingTop=-1;spacingLeft=3;spacingRight=3;rotatable=0;labelPosition=right;points=[];portConstraint=eastwest;strokeColor=inherit;" parent="VFV9XwUGxA5xjS1nipd3-68" vertex="1">
                    <mxGeometry y="49" width="190" height="8" as="geometry"/>
                </mxCell>
                <mxCell id="VFV9XwUGxA5xjS1nipd3-71" value="&lt;div&gt;+ LoadScene(char* _path) : void&lt;/div&gt;&lt;div&gt;+ GetScene(int) : Scene*&lt;/div&gt;&lt;div&gt;&lt;br&gt;&lt;/div&gt;&lt;div&gt;+ SceneLoader()&lt;/div&gt;&lt;div&gt;+ ~SceneLoader()&lt;/div&gt;" style="text;strokeColor=none;fillColor=none;align=left;verticalAlign=top;spacingLeft=4;spacingRight=4;overflow=hidden;rotatable=0;points=[[0,0.5],[1,0.5]];portConstraint=eastwest;whiteSpace=wrap;html=1;" parent="VFV9XwUGxA5xjS1nipd3-68" vertex="1">
                    <mxGeometry y="57" width="190" height="80" as="geometry"/>
                </mxCell>
                <mxCell id="VFV9XwUGxA5xjS1nipd3-72" value="&lt;div&gt;Error message callback&lt;/div&gt;&lt;div&gt;function&lt;/div&gt;" style="edgeStyle=orthogonalEdgeStyle;rounded=0;orthogonalLoop=1;jettySize=auto;html=1;endArrow=none;startFill=0;" parent="VFV9XwUGxA5xjS1nipd3-22" source="VFV9XwUGxA5xjS1nipd3-73" target="VFV9XwUGxA5xjS1nipd3-24" edge="1">
                    <mxGeometry x="-0.5911" y="-14" relative="1" as="geometry">
                        <Array as="points">
                            <mxPoint x="406" y="305"/>
                            <mxPoint x="406" y="143"/>
                        </Array>
                        <mxPoint as="offset"/>
                    </mxGeometry>
                </mxCell>
                <mxCell id="VFV9XwUGxA5xjS1nipd3-73" value="&amp;nbsp;static OpenGLError" style="swimlane;fontStyle=1;align=center;verticalAlign=top;childLayout=stackLayout;horizontal=1;startSize=26;horizontalStack=0;resizeParent=1;resizeParentMax=0;resizeLast=0;collapsible=1;marginBottom=0;whiteSpace=wrap;html=1;" parent="VFV9XwUGxA5xjS1nipd3-22" vertex="1">
                    <mxGeometry x="16" y="226" width="292" height="142" as="geometry"/>
                </mxCell>
                <mxCell id="VFV9XwUGxA5xjS1nipd3-74" value="-" style="text;strokeColor=none;fillColor=none;align=left;verticalAlign=top;spacingLeft=4;spacingRight=4;overflow=hidden;rotatable=0;points=[[0,0.5],[1,0.5]];portConstraint=eastwest;whiteSpace=wrap;html=1;" parent="VFV9XwUGxA5xjS1nipd3-73" vertex="1">
                    <mxGeometry y="26" width="292" height="23" as="geometry"/>
                </mxCell>
                <mxCell id="VFV9XwUGxA5xjS1nipd3-75" value="" style="line;strokeWidth=1;fillColor=none;align=left;verticalAlign=middle;spacingTop=-1;spacingLeft=3;spacingRight=3;rotatable=0;labelPosition=right;points=[];portConstraint=eastwest;strokeColor=inherit;" parent="VFV9XwUGxA5xjS1nipd3-73" vertex="1">
                    <mxGeometry y="49" width="292" height="8" as="geometry"/>
                </mxCell>
                <mxCell id="VFV9XwUGxA5xjS1nipd3-76" value="&lt;div&gt;+ DisplayDebugMessage(GLenum, GLenum, GLuint, &lt;span style=&quot;white-space: pre;&quot;&gt;&#x9;&lt;/span&gt;&lt;span style=&quot;white-space: pre;&quot;&gt;&#x9;&lt;/span&gt;&lt;span style=&quot;white-space: pre;&quot;&gt;&#x9;&lt;/span&gt;&lt;span style=&quot;white-space: pre;&quot;&gt;&#x9;&lt;/span&gt;&lt;span style=&quot;white-space: pre;&quot;&gt;&#x9;&lt;/span&gt; GLenum, GLsizei, const &lt;span style=&quot;white-space: pre;&quot;&gt;&#x9;&lt;/span&gt;&lt;span style=&quot;white-space: pre;&quot;&gt;&#x9;&lt;/span&gt;&lt;span style=&quot;white-space: pre;&quot;&gt;&#x9;&lt;/span&gt;&lt;span style=&quot;white-space: pre;&quot;&gt;&#x9;&lt;/span&gt;&lt;span style=&quot;white-space: pre;&quot;&gt;&#x9;&lt;/span&gt; GLchar*, const void*) : void&lt;/div&gt;&lt;div&gt;+ Init() : void&lt;/div&gt;" style="text;strokeColor=none;fillColor=none;align=left;verticalAlign=top;spacingLeft=4;spacingRight=4;overflow=hidden;rotatable=0;points=[[0,0.5],[1,0.5]];portConstraint=eastwest;whiteSpace=wrap;html=1;" parent="VFV9XwUGxA5xjS1nipd3-73" vertex="1">
                    <mxGeometry y="57" width="292" height="85" as="geometry"/>
                </mxCell>
                <mxCell id="VFV9XwUGxA5xjS1nipd3-77" value="&lt;div align=&quot;left&quot;&gt;Things to add:&lt;/div&gt;&lt;div align=&quot;left&quot;&gt;- Materials&lt;/div&gt;&lt;div align=&quot;left&quot;&gt;- Entity types?&lt;/div&gt;&lt;div align=&quot;left&quot;&gt;- Material property types&lt;/div&gt;" style="text;html=1;align=left;verticalAlign=middle;whiteSpace=wrap;rounded=0;" parent="VFV9XwUGxA5xjS1nipd3-22" vertex="1">
                    <mxGeometry x="1632" y="617" width="174" height="61" as="geometry"/>
                </mxCell>
                <mxCell id="VFV9XwUGxA5xjS1nipd3-82" style="edgeStyle=orthogonalEdgeStyle;rounded=0;orthogonalLoop=1;jettySize=auto;html=1;endArrow=diamondThin;endFill=1;endSize=26;" parent="VFV9XwUGxA5xjS1nipd3-22" source="VFV9XwUGxA5xjS1nipd3-78" target="VFV9XwUGxA5xjS1nipd3-32" edge="1">
                    <mxGeometry relative="1" as="geometry"/>
                </mxCell>
                <mxCell id="VFV9XwUGxA5xjS1nipd3-78" value="Material" style="swimlane;fontStyle=1;align=center;verticalAlign=top;childLayout=stackLayout;horizontal=1;startSize=26;horizontalStack=0;resizeParent=1;resizeParentMax=0;resizeLast=0;collapsible=1;marginBottom=0;whiteSpace=wrap;html=1;" parent="VFV9XwUGxA5xjS1nipd3-22" vertex="1">
                    <mxGeometry x="1214" y="742" width="285" height="161" as="geometry"/>
                </mxCell>
                <mxCell id="VFV9XwUGxA5xjS1nipd3-79" value="&lt;div&gt;- m_Shader : ShaderProgram*&lt;/div&gt;&lt;div&gt;&amp;nbsp;contains various flags and values used and uploaded lazily to shader program&lt;/div&gt;" style="text;strokeColor=none;fillColor=none;align=left;verticalAlign=top;spacingLeft=4;spacingRight=4;overflow=hidden;rotatable=0;points=[[0,0.5],[1,0.5]];portConstraint=eastwest;whiteSpace=wrap;html=1;" parent="VFV9XwUGxA5xjS1nipd3-78" vertex="1">
                    <mxGeometry y="26" width="285" height="61" as="geometry"/>
                </mxCell>
                <mxCell id="VFV9XwUGxA5xjS1nipd3-80" value="" style="line;strokeWidth=1;fillColor=none;align=left;verticalAlign=middle;spacingTop=-1;spacingLeft=3;spacingRight=3;rotatable=0;labelPosition=right;points=[];portConstraint=eastwest;strokeColor=inherit;" parent="VFV9XwUGxA5xjS1nipd3-78" vertex="1">
                    <mxGeometry y="87" width="285" height="8" as="geometry"/>
                </mxCell>
                <mxCell id="VFV9XwUGxA5xjS1nipd3-81" value="&lt;div&gt;+ Use() : void&lt;/div&gt;&lt;div&gt;&lt;br&gt;&lt;/div&gt;&lt;div&gt;+ Material(ShaderProgram*)&lt;/div&gt;&lt;div&gt;+ ~Material&lt;/div&gt;" style="text;strokeColor=none;fillColor=none;align=left;verticalAlign=top;spacingLeft=4;spacingRight=4;overflow=hidden;rotatable=0;points=[[0,0.5],[1,0.5]];portConstraint=eastwest;whiteSpace=wrap;html=1;" parent="VFV9XwUGxA5xjS1nipd3-78" vertex="1">
                    <mxGeometry y="95" width="285" height="66" as="geometry"/>
                </mxCell>
                <mxCell id="VFV9XwUGxA5xjS1nipd3-87" value="enum EntityType" style="swimlane;whiteSpace=wrap;html=1;" parent="VFV9XwUGxA5xjS1nipd3-22" vertex="1">
                    <mxGeometry x="1438" y="377" width="200" height="58" as="geometry"/>
                </mxCell>
                <mxCell id="VFV9XwUGxA5xjS1nipd3-89" value="&lt;div&gt;- Model&lt;/div&gt;&lt;div&gt;- Cube&lt;/div&gt;" style="text;html=1;align=left;verticalAlign=middle;whiteSpace=wrap;rounded=0;" parent="VFV9XwUGxA5xjS1nipd3-87" vertex="1">
                    <mxGeometry x="1" y="24" width="198" height="32" as="geometry"/>
                </mxCell>
                <mxCell id="VFV9XwUGxA5xjS1nipd3-90" value="enum EntityType" style="swimlane;whiteSpace=wrap;html=1;" parent="VFV9XwUGxA5xjS1nipd3-22" vertex="1">
                    <mxGeometry x="1438" y="452" width="200" height="58" as="geometry"/>
                </mxCell>
                <mxCell id="VFV9XwUGxA5xjS1nipd3-91" value="&lt;div&gt;- Model&lt;/div&gt;&lt;div&gt;- Cube&lt;/div&gt;" style="text;html=1;align=left;verticalAlign=middle;whiteSpace=wrap;rounded=0;" parent="VFV9XwUGxA5xjS1nipd3-90" vertex="1">
                    <mxGeometry x="1" y="24" width="198" height="32" as="geometry"/>
                </mxCell>
                <mxCell id="n8K9NaAA7chjtoY1-mzu-1" value="Collider" style="swimlane;fontStyle=1;align=center;verticalAlign=top;childLayout=stackLayout;horizontal=1;startSize=26;horizontalStack=0;resizeParent=1;resizeParentMax=0;resizeLast=0;collapsible=1;marginBottom=0;whiteSpace=wrap;html=1;" parent="VFV9XwUGxA5xjS1nipd3-22" vertex="1">
                    <mxGeometry x="253" y="742" width="245" height="219" as="geometry"/>
                </mxCell>
                <mxCell id="n8K9NaAA7chjtoY1-mzu-2" value="- m_Transform : Transform" style="text;strokeColor=none;fillColor=none;align=left;verticalAlign=top;spacingLeft=4;spacingRight=4;overflow=hidden;rotatable=0;points=[[0,0.5],[1,0.5]];portConstraint=eastwest;whiteSpace=wrap;html=1;" parent="n8K9NaAA7chjtoY1-mzu-1" vertex="1">
                    <mxGeometry y="26" width="245" height="60" as="geometry"/>
                </mxCell>
                <mxCell id="n8K9NaAA7chjtoY1-mzu-3" value="" style="line;strokeWidth=1;fillColor=none;align=left;verticalAlign=middle;spacingTop=-1;spacingLeft=3;spacingRight=3;rotatable=0;labelPosition=right;points=[];portConstraint=eastwest;strokeColor=inherit;" parent="n8K9NaAA7chjtoY1-mzu-1" vertex="1">
                    <mxGeometry y="86" width="245" height="8" as="geometry"/>
                </mxCell>
                <mxCell id="n8K9NaAA7chjtoY1-mzu-4" value="+ Collider()&lt;div&gt;+ ~Collider()&lt;/div&gt;&lt;div&gt;&lt;br&gt;&lt;/div&gt;&lt;div&gt;&lt;br&gt;&lt;/div&gt;" style="text;strokeColor=none;fillColor=none;align=left;verticalAlign=top;spacingLeft=4;spacingRight=4;overflow=hidden;rotatable=0;points=[[0,0.5],[1,0.5]];portConstraint=eastwest;whiteSpace=wrap;html=1;" parent="n8K9NaAA7chjtoY1-mzu-1" vertex="1">
                    <mxGeometry y="94" width="245" height="125" as="geometry"/>
                </mxCell>
                <mxCell id="2" value="BigPlan" style="swimlane;whiteSpace=wrap;html=1;" parent="1" vertex="1">
                    <mxGeometry x="-7812" y="-399" width="3192" height="2499" as="geometry"/>
                </mxCell>
                <mxCell id="3" value="SDLGLWindow" style="swimlane;fontStyle=1;align=center;verticalAlign=top;childLayout=stackLayout;horizontal=1;startSize=26;horizontalStack=0;resizeParent=1;resizeParentMax=0;resizeLast=0;collapsible=1;marginBottom=0;whiteSpace=wrap;html=1;" parent="2" vertex="1">
                    <mxGeometry x="1104" y="356" width="160" height="97" as="geometry"/>
                </mxCell>
                <mxCell id="4" value="- Game*wk&lt;div&gt;- SDLWindow*sh&lt;/div&gt;" style="text;strokeColor=none;fillColor=none;align=left;verticalAlign=top;spacingLeft=4;spacingRight=4;overflow=hidden;rotatable=0;points=[[0,0.5],[1,0.5]];portConstraint=eastwest;whiteSpace=wrap;html=1;" parent="3" vertex="1">
                    <mxGeometry y="26" width="160" height="37" as="geometry"/>
                </mxCell>
                <mxCell id="5" value="" style="line;strokeWidth=1;fillColor=none;align=left;verticalAlign=middle;spacingTop=-1;spacingLeft=3;spacingRight=3;rotatable=0;labelPosition=right;points=[];portConstraint=eastwest;strokeColor=inherit;" parent="3" vertex="1">
                    <mxGeometry y="63" width="160" height="8" as="geometry"/>
                </mxCell>
                <mxCell id="6" value="+ method(type): type" style="text;strokeColor=none;fillColor=none;align=left;verticalAlign=top;spacingLeft=4;spacingRight=4;overflow=hidden;rotatable=0;points=[[0,0.5],[1,0.5]];portConstraint=eastwest;whiteSpace=wrap;html=1;" parent="3" vertex="1">
                    <mxGeometry y="71" width="160" height="26" as="geometry"/>
                </mxCell>
                <mxCell id="40" style="edgeStyle=none;html=1;" parent="2" source="7" target="11" edge="1">
                    <mxGeometry relative="1" as="geometry"/>
                </mxCell>
                <mxCell id="54" style="edgeStyle=none;html=1;" parent="2" source="7" target="3" edge="1">
                    <mxGeometry relative="1" as="geometry"/>
                </mxCell>
                <mxCell id="7" value="Game" style="swimlane;fontStyle=1;align=center;verticalAlign=top;childLayout=stackLayout;horizontal=1;startSize=26;horizontalStack=0;resizeParent=1;resizeParentMax=0;resizeLast=0;collapsible=1;marginBottom=0;whiteSpace=wrap;html=1;" parent="2" vertex="1">
                    <mxGeometry x="947" y="161" width="160" height="139" as="geometry"/>
                </mxCell>
                <mxCell id="8" value="- SDLGLWindow*sh&lt;div&gt;- vec&amp;lt;Scene*sh&amp;gt;&lt;/div&gt;&lt;div&gt;- Scene*sh&lt;/div&gt;" style="text;strokeColor=none;fillColor=none;align=left;verticalAlign=top;spacingLeft=4;spacingRight=4;overflow=hidden;rotatable=0;points=[[0,0.5],[1,0.5]];portConstraint=eastwest;whiteSpace=wrap;html=1;" parent="7" vertex="1">
                    <mxGeometry y="26" width="160" height="79" as="geometry"/>
                </mxCell>
                <mxCell id="9" value="" style="line;strokeWidth=1;fillColor=none;align=left;verticalAlign=middle;spacingTop=-1;spacingLeft=3;spacingRight=3;rotatable=0;labelPosition=right;points=[];portConstraint=eastwest;strokeColor=inherit;" parent="7" vertex="1">
                    <mxGeometry y="105" width="160" height="8" as="geometry"/>
                </mxCell>
                <mxCell id="10" value="&lt;span style=&quot;color: rgb(192, 192, 192);&quot;&gt;+ LoadGame()&lt;/span&gt;" style="text;strokeColor=none;fillColor=none;align=left;verticalAlign=top;spacingLeft=4;spacingRight=4;overflow=hidden;rotatable=0;points=[[0,0.5],[1,0.5]];portConstraint=eastwest;whiteSpace=wrap;html=1;" parent="7" vertex="1">
                    <mxGeometry y="113" width="160" height="26" as="geometry"/>
                </mxCell>
                <mxCell id="42" style="edgeStyle=none;html=1;" parent="2" source="11" target="19" edge="1">
                    <mxGeometry relative="1" as="geometry"/>
                </mxCell>
                <mxCell id="46" value="Update" style="edgeStyle=none;html=1;" parent="2" source="11" target="23" edge="1">
                    <mxGeometry x="0.0052" y="-9" relative="1" as="geometry">
                        <mxPoint as="offset"/>
                        <mxPoint x="555.1261378413528" y="275.9999999999998" as="targetPoint"/>
                    </mxGeometry>
                </mxCell>
                <mxCell id="11" value="Scene" style="swimlane;fontStyle=1;align=center;verticalAlign=top;childLayout=stackLayout;horizontal=1;startSize=26;horizontalStack=0;resizeParent=1;resizeParentMax=0;resizeLast=0;collapsible=1;marginBottom=0;whiteSpace=wrap;html=1;" parent="2" vertex="1">
                    <mxGeometry x="722" y="362.75" width="160" height="125" as="geometry"/>
                </mxCell>
                <mxCell id="12" value="- Game*wk&lt;div&gt;&lt;font style=&quot;&quot;&gt;- Octree&lt;br&gt;&lt;/font&gt;&lt;div&gt;- vec&amp;lt;GameEntitiy*sh&amp;gt;&lt;/div&gt;&lt;/div&gt;&lt;div&gt;- Camera&lt;/div&gt;" style="text;strokeColor=none;fillColor=none;align=left;verticalAlign=top;spacingLeft=4;spacingRight=4;overflow=hidden;rotatable=0;points=[[0,0.5],[1,0.5]];portConstraint=eastwest;whiteSpace=wrap;html=1;" parent="11" vertex="1">
                    <mxGeometry y="26" width="160" height="65" as="geometry"/>
                </mxCell>
                <mxCell id="13" value="" style="line;strokeWidth=1;fillColor=none;align=left;verticalAlign=middle;spacingTop=-1;spacingLeft=3;spacingRight=3;rotatable=0;labelPosition=right;points=[];portConstraint=eastwest;strokeColor=inherit;" parent="11" vertex="1">
                    <mxGeometry y="91" width="160" height="8" as="geometry"/>
                </mxCell>
                <mxCell id="14" value="+ Update(float)" style="text;strokeColor=none;fillColor=none;align=left;verticalAlign=top;spacingLeft=4;spacingRight=4;overflow=hidden;rotatable=0;points=[[0,0.5],[1,0.5]];portConstraint=eastwest;whiteSpace=wrap;html=1;" parent="11" vertex="1">
                    <mxGeometry y="99" width="160" height="26" as="geometry"/>
                </mxCell>
                <mxCell id="43" style="edgeStyle=none;html=1;" parent="2" source="19" target="35" edge="1">
                    <mxGeometry relative="1" as="geometry"/>
                </mxCell>
                <mxCell id="45" style="edgeStyle=none;html=1;" parent="2" source="19" target="27" edge="1">
                    <mxGeometry relative="1" as="geometry">
                        <Array as="points"/>
                    </mxGeometry>
                </mxCell>
                <mxCell id="52" value="Draw" style="edgeStyle=none;html=1;entryX=-0.019;entryY=0.769;entryDx=0;entryDy=0;entryPerimeter=0;" parent="2" source="19" target="48" edge="1">
                    <mxGeometry x="-0.1467" y="9" relative="1" as="geometry">
                        <Array as="points"/>
                        <mxPoint x="1" as="offset"/>
                    </mxGeometry>
                </mxCell>
                <mxCell id="19" value="GameEntity" style="swimlane;fontStyle=1;align=center;verticalAlign=top;childLayout=stackLayout;horizontal=1;startSize=26;horizontalStack=0;resizeParent=1;resizeParentMax=0;resizeLast=0;collapsible=1;marginBottom=0;whiteSpace=wrap;html=1;" parent="2" vertex="1">
                    <mxGeometry x="533" y="544.5" width="201" height="211" as="geometry"/>
                </mxCell>
                <mxCell id="20" value="&lt;font style=&quot;color: light-dark(rgb(0, 0, 0), rgb(255, 255, 255));&quot;&gt;- Scene*wk&lt;/font&gt;&lt;div&gt;&lt;font style=&quot;color: light-dark(rgb(0, 0, 0), rgb(255, 255, 255));&quot;&gt;&lt;br&gt;&lt;/font&gt;&lt;div&gt;&lt;font style=&quot;color: light-dark(rgb(0, 0, 0), rgb(255, 255, 255));&quot;&gt;- Model*wk&lt;/font&gt;&lt;/div&gt;&lt;div&gt;&lt;font style=&quot;color: light-dark(rgb(0, 0, 0), rgb(255, 255, 255));&quot;&gt;- Texture*wk&lt;/font&gt;&lt;/div&gt;&lt;div&gt;&lt;font style=&quot;color: light-dark(rgb(0, 0, 0), rgb(255, 255, 255));&quot;&gt;&lt;br&gt;&lt;/font&gt;&lt;/div&gt;&lt;div&gt;&lt;font style=&quot;color: light-dark(rgb(0, 0, 0), rgb(255, 255, 255));&quot;&gt;- id&lt;/font&gt;&lt;div&gt;&lt;font style=&quot;color: light-dark(rgb(0, 0, 0), rgb(255, 255, 255));&quot;&gt;- Transform&lt;/font&gt;&lt;/div&gt;&lt;/div&gt;&lt;/div&gt;&lt;div&gt;&lt;font style=&quot;color: light-dark(rgb(0, 0, 0), rgb(255, 255, 255));&quot;&gt;- ShaderProgram*sh&lt;/font&gt;&lt;/div&gt;&lt;div&gt;&lt;font style=&quot;color: light-dark(rgb(0, 0, 0), rgb(255, 255, 255));&quot;&gt;- CollisionShape*sh&lt;/font&gt;&lt;/div&gt;" style="text;strokeColor=none;fillColor=none;align=left;verticalAlign=top;spacingLeft=4;spacingRight=4;overflow=hidden;rotatable=0;points=[[0,0.5],[1,0.5]];portConstraint=eastwest;whiteSpace=wrap;html=1;" parent="19" vertex="1">
                    <mxGeometry y="26" width="201" height="137" as="geometry"/>
                </mxCell>
                <mxCell id="21" value="" style="line;strokeWidth=1;fillColor=none;align=left;verticalAlign=middle;spacingTop=-1;spacingLeft=3;spacingRight=3;rotatable=0;labelPosition=right;points=[];portConstraint=eastwest;strokeColor=inherit;" parent="19" vertex="1">
                    <mxGeometry y="163" width="201" height="8" as="geometry"/>
                </mxCell>
                <mxCell id="22" value="+ GameEntity(char*, char*, vec3)" style="text;strokeColor=none;fillColor=none;align=left;verticalAlign=top;spacingLeft=4;spacingRight=4;overflow=hidden;rotatable=0;points=[[0,0.5],[1,0.5]];portConstraint=eastwest;whiteSpace=wrap;html=1;" parent="19" vertex="1">
                    <mxGeometry y="171" width="201" height="40" as="geometry"/>
                </mxCell>
                <mxCell id="142" style="edgeStyle=none;html=1;endArrow=diamondThin;endFill=1;endSize=15;" edge="1" parent="2" source="23" target="27">
                    <mxGeometry relative="1" as="geometry"/>
                </mxCell>
                <mxCell id="23" value="&lt;u&gt;CollisionDetection&lt;/u&gt;" style="swimlane;fontStyle=1;align=center;verticalAlign=top;childLayout=stackLayout;horizontal=1;startSize=26;horizontalStack=0;resizeParent=1;resizeParentMax=0;resizeLast=0;collapsible=1;marginBottom=0;whiteSpace=wrap;html=1;" parent="2" vertex="1">
                    <mxGeometry x="78" y="335.75" width="333" height="184" as="geometry"/>
                </mxCell>
                <mxCell id="24" value="+" style="text;strokeColor=none;fillColor=none;align=left;verticalAlign=top;spacingLeft=4;spacingRight=4;overflow=hidden;rotatable=0;points=[[0,0.5],[1,0.5]];portConstraint=eastwest;whiteSpace=wrap;html=1;" parent="23" vertex="1">
                    <mxGeometry y="26" width="333" height="26" as="geometry"/>
                </mxCell>
                <mxCell id="25" value="" style="line;strokeWidth=1;fillColor=none;align=left;verticalAlign=middle;spacingTop=-1;spacingLeft=3;spacingRight=3;rotatable=0;labelPosition=right;points=[];portConstraint=eastwest;strokeColor=inherit;" parent="23" vertex="1">
                    <mxGeometry y="52" width="333" height="8" as="geometry"/>
                </mxCell>
                <mxCell id="26" value="&lt;u&gt;+ CollisionCheck(CollisionShape*,&amp;nbsp;&lt;/u&gt;&lt;u&gt;CollisionShape*, CollisionInfo*)&lt;/u&gt;&lt;div&gt;&lt;u&gt;+ ResolveCollision(CollisionInfo*)&lt;/u&gt;&lt;/div&gt;&lt;div&gt;&lt;u&gt;&lt;br&gt;&lt;/u&gt;&lt;/div&gt;&lt;div&gt;&lt;u&gt;- AABBCollision&lt;/u&gt;&lt;/div&gt;&lt;div&gt;&lt;u&gt;- CubevsMeshCollision&lt;/u&gt;&lt;/div&gt;&lt;div&gt;&lt;u&gt;- etc&lt;/u&gt;&lt;/div&gt;&lt;div&gt;&lt;u&gt;etc&lt;/u&gt;&lt;/div&gt;" style="text;strokeColor=none;fillColor=none;align=left;verticalAlign=top;spacingLeft=4;spacingRight=4;overflow=hidden;rotatable=0;points=[[0,0.5],[1,0.5]];portConstraint=eastwest;whiteSpace=wrap;html=1;" parent="23" vertex="1">
                    <mxGeometry y="60" width="333" height="124" as="geometry"/>
                </mxCell>
                <mxCell id="27" value="CollisionShape" style="swimlane;fontStyle=1;align=center;verticalAlign=top;childLayout=stackLayout;horizontal=1;startSize=26;horizontalStack=0;resizeParent=1;resizeParentMax=0;resizeLast=0;collapsible=1;marginBottom=0;whiteSpace=wrap;html=1;" parent="2" vertex="1">
                    <mxGeometry x="440" y="848.5" width="160" height="99" as="geometry"/>
                </mxCell>
                <mxCell id="28" value="- Transform*wk&lt;div&gt;- ShapeType&lt;/div&gt;" style="text;strokeColor=none;fillColor=none;align=left;verticalAlign=top;spacingLeft=4;spacingRight=4;overflow=hidden;rotatable=0;points=[[0,0.5],[1,0.5]];portConstraint=eastwest;whiteSpace=wrap;html=1;" parent="27" vertex="1">
                    <mxGeometry y="26" width="160" height="39" as="geometry"/>
                </mxCell>
                <mxCell id="29" value="" style="line;strokeWidth=1;fillColor=none;align=left;verticalAlign=middle;spacingTop=-1;spacingLeft=3;spacingRight=3;rotatable=0;labelPosition=right;points=[];portConstraint=eastwest;strokeColor=inherit;" parent="27" vertex="1">
                    <mxGeometry y="65" width="160" height="8" as="geometry"/>
                </mxCell>
                <mxCell id="30" value="+ GetType() : ShapeType" style="text;strokeColor=none;fillColor=none;align=left;verticalAlign=top;spacingLeft=4;spacingRight=4;overflow=hidden;rotatable=0;points=[[0,0.5],[1,0.5]];portConstraint=eastwest;whiteSpace=wrap;html=1;" parent="27" vertex="1">
                    <mxGeometry y="73" width="160" height="26" as="geometry"/>
                </mxCell>
                <mxCell id="44" style="edgeStyle=none;html=1;" parent="2" source="35" target="27" edge="1">
                    <mxGeometry relative="1" as="geometry"/>
                </mxCell>
                <mxCell id="35" value="Transform" style="swimlane;fontStyle=1;align=center;verticalAlign=top;childLayout=stackLayout;horizontal=1;startSize=26;horizontalStack=0;resizeParent=1;resizeParentMax=0;resizeLast=0;collapsible=1;marginBottom=0;whiteSpace=wrap;html=1;" parent="2" vertex="1">
                    <mxGeometry x="722" y="820" width="160" height="143" as="geometry"/>
                </mxCell>
                <mxCell id="36" value="- pos: vec3&lt;div&gt;- rot : quat&lt;/div&gt;&lt;div&gt;- up : vec3&lt;/div&gt;&lt;div&gt;- forward : vec3&lt;/div&gt;&lt;div&gt;- right : vec3&lt;/div&gt;&lt;div&gt;&lt;br&gt;&lt;/div&gt;&lt;div&gt;&lt;br&gt;&lt;/div&gt;" style="text;strokeColor=none;fillColor=none;align=left;verticalAlign=top;spacingLeft=4;spacingRight=4;overflow=hidden;rotatable=0;points=[[0,0.5],[1,0.5]];portConstraint=eastwest;whiteSpace=wrap;html=1;" parent="35" vertex="1">
                    <mxGeometry y="26" width="160" height="83" as="geometry"/>
                </mxCell>
                <mxCell id="37" value="" style="line;strokeWidth=1;fillColor=none;align=left;verticalAlign=middle;spacingTop=-1;spacingLeft=3;spacingRight=3;rotatable=0;labelPosition=right;points=[];portConstraint=eastwest;strokeColor=inherit;" parent="35" vertex="1">
                    <mxGeometry y="109" width="160" height="8" as="geometry"/>
                </mxCell>
                <mxCell id="38" value="+ method(type): type" style="text;strokeColor=none;fillColor=none;align=left;verticalAlign=top;spacingLeft=4;spacingRight=4;overflow=hidden;rotatable=0;points=[[0,0.5],[1,0.5]];portConstraint=eastwest;whiteSpace=wrap;html=1;" parent="35" vertex="1">
                    <mxGeometry y="117" width="160" height="26" as="geometry"/>
                </mxCell>
                <mxCell id="39" value="Key:&lt;div&gt;std::shared_ptr -&amp;gt; *sh&lt;/div&gt;&lt;div&gt;std::weak_ptr -&amp;gt; *wk&lt;/div&gt;&lt;div&gt;std::unique_ptr -&amp;gt; *uq&lt;/div&gt;" style="text;html=1;align=center;verticalAlign=middle;whiteSpace=wrap;rounded=0;" parent="2" vertex="1">
                    <mxGeometry x="4" y="37" width="217" height="30" as="geometry"/>
                </mxCell>
                <mxCell id="47" value="Camera" style="swimlane;fontStyle=1;align=center;verticalAlign=top;childLayout=stackLayout;horizontal=1;startSize=26;horizontalStack=0;resizeParent=1;resizeParentMax=0;resizeLast=0;collapsible=1;marginBottom=0;whiteSpace=wrap;html=1;" parent="2" vertex="1">
                    <mxGeometry x="951" y="577" width="160" height="112" as="geometry"/>
                </mxCell>
                <mxCell id="48" value="- yaw : float&lt;div&gt;- pitch : float&lt;/div&gt;" style="text;strokeColor=none;fillColor=none;align=left;verticalAlign=top;spacingLeft=4;spacingRight=4;overflow=hidden;rotatable=0;points=[[0,0.5],[1,0.5]];portConstraint=eastwest;whiteSpace=wrap;html=1;" parent="47" vertex="1">
                    <mxGeometry y="26" width="160" height="52" as="geometry"/>
                </mxCell>
                <mxCell id="49" value="" style="line;strokeWidth=1;fillColor=none;align=left;verticalAlign=middle;spacingTop=-1;spacingLeft=3;spacingRight=3;rotatable=0;labelPosition=right;points=[];portConstraint=eastwest;strokeColor=inherit;" parent="47" vertex="1">
                    <mxGeometry y="78" width="160" height="8" as="geometry"/>
                </mxCell>
                <mxCell id="50" value="+ Draw(GameEntity*)" style="text;strokeColor=none;fillColor=none;align=left;verticalAlign=top;spacingLeft=4;spacingRight=4;overflow=hidden;rotatable=0;points=[[0,0.5],[1,0.5]];portConstraint=eastwest;whiteSpace=wrap;html=1;" parent="47" vertex="1">
                    <mxGeometry y="86" width="160" height="26" as="geometry"/>
                </mxCell>
                <mxCell id="51" style="edgeStyle=none;html=1;exitX=0.8;exitY=1.01;exitDx=0;exitDy=0;exitPerimeter=0;" parent="2" source="14" target="47" edge="1">
                    <mxGeometry relative="1" as="geometry"/>
                </mxCell>
                <mxCell id="55" value="&lt;font style=&quot;font-size: 32px;&quot;&gt;Top Level Flowchart&lt;/font&gt;" style="text;html=1;align=center;verticalAlign=middle;whiteSpace=wrap;rounded=0;" parent="2" vertex="1">
                    <mxGeometry x="1321" y="173" width="484" height="159" as="geometry"/>
                </mxCell>
                <mxCell id="58" style="edgeStyle=none;html=1;" parent="2" source="56" edge="1">
                    <mxGeometry relative="1" as="geometry">
                        <mxPoint x="1563" y="449.9999999999998" as="targetPoint"/>
                    </mxGeometry>
                </mxCell>
                <mxCell id="56" value="Start" style="rounded=1;whiteSpace=wrap;html=1;" parent="2" vertex="1">
                    <mxGeometry x="1503" y="303" width="120" height="60" as="geometry"/>
                </mxCell>
                <mxCell id="60" style="edgeStyle=none;html=1;" parent="2" edge="1">
                    <mxGeometry relative="1" as="geometry">
                        <mxPoint x="1563" y="510" as="sourcePoint"/>
                        <mxPoint x="1563" y="610" as="targetPoint"/>
                    </mxGeometry>
                </mxCell>
                <mxCell id="160" style="edgeStyle=none;html=1;" edge="1" parent="2" source="61" target="159">
                    <mxGeometry relative="1" as="geometry"/>
                </mxCell>
                <mxCell id="61" value="Run Game.Play()" style="shape=process;whiteSpace=wrap;html=1;backgroundOutline=1;" parent="2" vertex="1">
                    <mxGeometry x="1491" y="613" width="144" height="60" as="geometry"/>
                </mxCell>
                <mxCell id="62" value="Create Game()" style="shape=process;whiteSpace=wrap;html=1;backgroundOutline=1;" parent="2" vertex="1">
                    <mxGeometry x="1491" y="446" width="144" height="60" as="geometry"/>
                </mxCell>
                <mxCell id="63" value="" style="shape=process;whiteSpace=wrap;html=1;backgroundOutline=1;" parent="2" vertex="1">
                    <mxGeometry x="1827" y="205" width="1310" height="826" as="geometry"/>
                </mxCell>
                <mxCell id="64" value="&lt;font style=&quot;font-size: 27px;&quot;&gt;Create Game&lt;/font&gt;" style="text;html=1;align=center;verticalAlign=middle;whiteSpace=wrap;rounded=0;" parent="2" vertex="1">
                    <mxGeometry x="2405" y="157" width="181" height="30" as="geometry"/>
                </mxCell>
                <mxCell id="67" style="edgeStyle=none;html=1;" parent="2" source="65" target="66" edge="1">
                    <mxGeometry relative="1" as="geometry"/>
                </mxCell>
                <mxCell id="65" value="Start" style="rounded=1;whiteSpace=wrap;html=1;" parent="2" vertex="1">
                    <mxGeometry x="2165" y="223" width="120" height="60" as="geometry"/>
                </mxCell>
                <mxCell id="69" style="edgeStyle=none;html=1;" parent="2" source="66" target="68" edge="1">
                    <mxGeometry relative="1" as="geometry"/>
                </mxCell>
                <mxCell id="66" value="Setup WIndow" style="shape=process;whiteSpace=wrap;html=1;backgroundOutline=1;" parent="2" vertex="1">
                    <mxGeometry x="2342" y="222.5" width="120" height="60" as="geometry"/>
                </mxCell>
                <mxCell id="97" style="edgeStyle=none;html=1;" parent="2" source="68" target="96" edge="1">
                    <mxGeometry relative="1" as="geometry"/>
                </mxCell>
                <mxCell id="68" value="Setup Scene" style="shape=process;whiteSpace=wrap;html=1;backgroundOutline=1;" parent="2" vertex="1">
                    <mxGeometry x="2495" y="222.5" width="120" height="60" as="geometry"/>
                </mxCell>
                <mxCell id="70" value="" style="shape=process;whiteSpace=wrap;html=1;backgroundOutline=1;" parent="2" vertex="1">
                    <mxGeometry x="1999" y="402" width="987" height="163" as="geometry"/>
                </mxCell>
                <mxCell id="74" style="edgeStyle=none;html=1;" parent="2" source="71" target="73" edge="1">
                    <mxGeometry relative="1" as="geometry"/>
                </mxCell>
                <mxCell id="71" value="Start" style="rounded=1;whiteSpace=wrap;html=1;" parent="2" vertex="1">
                    <mxGeometry x="2125" y="454" width="120" height="60" as="geometry"/>
                </mxCell>
                <mxCell id="72" value="&lt;font style=&quot;font-size: 27px;&quot;&gt;Setup Window&lt;/font&gt;" style="text;html=1;align=center;verticalAlign=middle;whiteSpace=wrap;rounded=0;" parent="2" vertex="1">
                    <mxGeometry x="2405" y="351" width="181" height="30" as="geometry"/>
                </mxCell>
                <mxCell id="76" style="edgeStyle=none;html=1;" parent="2" source="73" target="75" edge="1">
                    <mxGeometry relative="1" as="geometry"/>
                </mxCell>
                <mxCell id="73" value="Create SDL_Window" style="rounded=0;whiteSpace=wrap;html=1;" parent="2" vertex="1">
                    <mxGeometry x="2293" y="453" width="120" height="60" as="geometry"/>
                </mxCell>
                <mxCell id="78" style="edgeStyle=none;html=1;" parent="2" source="75" target="77" edge="1">
                    <mxGeometry relative="1" as="geometry"/>
                </mxCell>
                <mxCell id="75" value="Create GLEW context" style="rounded=0;whiteSpace=wrap;html=1;" parent="2" vertex="1">
                    <mxGeometry x="2441" y="453" width="120" height="60" as="geometry"/>
                </mxCell>
                <mxCell id="156" style="edgeStyle=none;html=1;" edge="1" parent="2" source="77" target="155">
                    <mxGeometry relative="1" as="geometry"/>
                </mxCell>
                <mxCell id="77" value="Start OpenGL debugger" style="rounded=0;whiteSpace=wrap;html=1;" parent="2" vertex="1">
                    <mxGeometry x="2586" y="454" width="120" height="60" as="geometry"/>
                </mxCell>
                <mxCell id="80" value="&lt;font style=&quot;font-size: 27px;&quot;&gt;Setup Scene&lt;/font&gt;" style="text;html=1;align=center;verticalAlign=middle;whiteSpace=wrap;rounded=0;" parent="2" vertex="1">
                    <mxGeometry x="2405" y="608" width="181" height="30" as="geometry"/>
                </mxCell>
                <mxCell id="79" value="" style="shape=process;whiteSpace=wrap;html=1;backgroundOutline=1;" parent="2" vertex="1">
                    <mxGeometry x="1970" y="652.75" width="1036" height="159" as="geometry"/>
                </mxCell>
                <mxCell id="83" style="edgeStyle=none;html=1;" parent="2" source="81" target="82" edge="1">
                    <mxGeometry relative="1" as="geometry"/>
                </mxCell>
                <mxCell id="81" value="Start" style="rounded=1;whiteSpace=wrap;html=1;" parent="2" vertex="1">
                    <mxGeometry x="2078" y="702.25" width="120" height="60" as="geometry"/>
                </mxCell>
                <mxCell id="85" style="edgeStyle=none;html=1;" parent="2" source="82" target="84" edge="1">
                    <mxGeometry relative="1" as="geometry"/>
                </mxCell>
                <mxCell id="82" value="Create collisions vector" style="rounded=0;whiteSpace=wrap;html=1;" parent="2" vertex="1">
                    <mxGeometry x="2219" y="702.25" width="120" height="60" as="geometry"/>
                </mxCell>
                <mxCell id="87" style="edgeStyle=none;html=1;" parent="2" source="84" target="86" edge="1">
                    <mxGeometry relative="1" as="geometry"/>
                </mxCell>
                <mxCell id="84" value="Create entities vector" style="rounded=0;whiteSpace=wrap;html=1;" parent="2" vertex="1">
                    <mxGeometry x="2352" y="702.25" width="120" height="60" as="geometry"/>
                </mxCell>
                <mxCell id="90" style="edgeStyle=none;html=1;" parent="2" source="86" target="89" edge="1">
                    <mxGeometry relative="1" as="geometry"/>
                </mxCell>
                <mxCell id="86" value="Create Octree" style="rounded=0;whiteSpace=wrap;html=1;" parent="2" vertex="1">
                    <mxGeometry x="2488" y="702.25" width="120" height="60" as="geometry"/>
                </mxCell>
                <mxCell id="154" style="edgeStyle=none;html=1;" edge="1" parent="2" source="89" target="153">
                    <mxGeometry relative="1" as="geometry"/>
                </mxCell>
                <mxCell id="89" value="Create Camera" style="rounded=0;whiteSpace=wrap;html=1;" parent="2" vertex="1">
                    <mxGeometry x="2620" y="702.25" width="120" height="60" as="geometry"/>
                </mxCell>
                <mxCell id="91" value="" style="shape=process;whiteSpace=wrap;html=1;backgroundOutline=1;" parent="2" vertex="1">
                    <mxGeometry x="1827" y="1209" width="1310" height="1262" as="geometry"/>
                </mxCell>
                <mxCell id="92" value="&lt;font style=&quot;font-size: 27px;&quot;&gt;Run Game.Play()&lt;/font&gt;" style="text;html=1;align=center;verticalAlign=middle;whiteSpace=wrap;rounded=0;" parent="2" vertex="1">
                    <mxGeometry x="2372" y="1166" width="228.5" height="30" as="geometry"/>
                </mxCell>
                <mxCell id="158" style="edgeStyle=none;html=1;" edge="1" parent="2" source="96" target="157">
                    <mxGeometry relative="1" as="geometry"/>
                </mxCell>
                <mxCell id="96" value="Load Game" style="shape=process;whiteSpace=wrap;html=1;backgroundOutline=1;" parent="2" vertex="1">
                    <mxGeometry x="2645" y="223" width="120" height="60" as="geometry"/>
                </mxCell>
                <mxCell id="98" value="" style="shape=process;whiteSpace=wrap;html=1;backgroundOutline=1;" parent="2" vertex="1">
                    <mxGeometry x="1985" y="878" width="1016" height="105" as="geometry"/>
                </mxCell>
                <mxCell id="99" value="&lt;font style=&quot;font-size: 27px;&quot;&gt;Load Game&lt;/font&gt;" style="text;html=1;align=center;verticalAlign=middle;whiteSpace=wrap;rounded=0;" parent="2" vertex="1">
                    <mxGeometry x="2402.5" y="838" width="181" height="30" as="geometry"/>
                </mxCell>
                <mxCell id="102" style="edgeStyle=none;html=1;" parent="2" source="100" target="101" edge="1">
                    <mxGeometry relative="1" as="geometry"/>
                </mxCell>
                <mxCell id="100" value="Start" style="rounded=1;whiteSpace=wrap;html=1;" parent="2" vertex="1">
                    <mxGeometry x="2099" y="903" width="120" height="60" as="geometry"/>
                </mxCell>
                <mxCell id="152" style="edgeStyle=none;html=1;" edge="1" parent="2" source="101" target="151">
                    <mxGeometry relative="1" as="geometry"/>
                </mxCell>
                <mxCell id="101" value="Just throw in whatever I want, maybe at some point load setting from text file or encode in xml" style="rounded=0;whiteSpace=wrap;html=1;" parent="2" vertex="1">
                    <mxGeometry x="2275" y="903" width="156" height="60" as="geometry"/>
                </mxCell>
                <mxCell id="107" style="edgeStyle=none;html=1;" parent="2" source="105" target="106" edge="1">
                    <mxGeometry relative="1" as="geometry"/>
                </mxCell>
                <mxCell id="105" value="Start" style="rounded=1;whiteSpace=wrap;html=1;" parent="2" vertex="1">
                    <mxGeometry x="1999" y="1227" width="120" height="60" as="geometry"/>
                </mxCell>
                <mxCell id="109" style="edgeStyle=none;html=1;" parent="2" source="106" target="108" edge="1">
                    <mxGeometry relative="1" as="geometry"/>
                </mxCell>
                <mxCell id="106" value="Get Base Ticks" style="rounded=0;whiteSpace=wrap;html=1;" parent="2" vertex="1">
                    <mxGeometry x="2183" y="1227" width="120" height="60" as="geometry"/>
                </mxCell>
                <mxCell id="111" style="edgeStyle=none;html=1;" parent="2" source="108" target="110" edge="1">
                    <mxGeometry relative="1" as="geometry"/>
                </mxCell>
                <mxCell id="108" value="Calculate Delta time" style="rounded=0;whiteSpace=wrap;html=1;" parent="2" vertex="1">
                    <mxGeometry x="2368" y="1227" width="120" height="60" as="geometry"/>
                </mxCell>
                <mxCell id="113" style="edgeStyle=none;html=1;" parent="2" source="110" edge="1">
                    <mxGeometry relative="1" as="geometry">
                        <mxPoint x="2795" y="1257" as="targetPoint"/>
                    </mxGeometry>
                </mxCell>
                <mxCell id="110" value="Get SDLKeyboardInput.&lt;div&gt;m_WIndow-&amp;gt;Update()&lt;/div&gt;" style="rounded=0;whiteSpace=wrap;html=1;" parent="2" vertex="1">
                    <mxGeometry x="2579" y="1227" width="120" height="60" as="geometry"/>
                </mxCell>
                <mxCell id="118" style="edgeStyle=none;html=1;" parent="2" source="114" target="117" edge="1">
                    <mxGeometry relative="1" as="geometry"/>
                </mxCell>
                <mxCell id="114" value="Swap drawn frma&lt;div&gt;m_WIndow-&amp;gt;Show()&lt;/div&gt;" style="rounded=0;whiteSpace=wrap;html=1;" parent="2" vertex="1">
                    <mxGeometry x="2795" y="1367" width="120" height="60" as="geometry"/>
                </mxCell>
                <mxCell id="116" style="edgeStyle=none;html=1;" parent="2" source="115" target="114" edge="1">
                    <mxGeometry relative="1" as="geometry"/>
                </mxCell>
                <mxCell id="115" value="Update Scene" style="shape=process;whiteSpace=wrap;html=1;backgroundOutline=1;" parent="2" vertex="1">
                    <mxGeometry x="2797" y="1227" width="120" height="60" as="geometry"/>
                </mxCell>
                <mxCell id="119" value="False" style="edgeStyle=none;html=1;entryX=0.5;entryY=1;entryDx=0;entryDy=0;" parent="2" source="117" target="108" edge="1">
                    <mxGeometry x="-0.8984" y="9" relative="1" as="geometry">
                        <Array as="points">
                            <mxPoint x="2428" y="1397"/>
                        </Array>
                        <mxPoint as="offset"/>
                    </mxGeometry>
                </mxCell>
                <mxCell id="121" value="True" style="edgeStyle=none;html=1;" parent="2" source="117" target="120" edge="1">
                    <mxGeometry x="-0.0248" y="25" relative="1" as="geometry">
                        <mxPoint y="1" as="offset"/>
                    </mxGeometry>
                </mxCell>
                <mxCell id="117" value="m_Window.m_Quit?" style="rhombus;whiteSpace=wrap;html=1;" parent="2" vertex="1">
                    <mxGeometry x="2574" y="1334" width="125" height="126" as="geometry"/>
                </mxCell>
                <mxCell id="120" value="End" style="rounded=1;whiteSpace=wrap;html=1;" parent="2" vertex="1">
                    <mxGeometry x="2577" y="1526" width="120" height="59" as="geometry"/>
                </mxCell>
                <mxCell id="122" value="" style="shape=process;whiteSpace=wrap;html=1;backgroundOutline=1;" parent="2" vertex="1">
                    <mxGeometry x="1990" y="1681" width="1006" height="364" as="geometry"/>
                </mxCell>
                <mxCell id="123" value="&lt;font style=&quot;font-size: 27px;&quot;&gt;Update Scene&lt;/font&gt;" style="text;html=1;align=center;verticalAlign=middle;whiteSpace=wrap;rounded=0;" parent="2" vertex="1">
                    <mxGeometry x="2369.75" y="1626" width="228.5" height="30" as="geometry"/>
                </mxCell>
                <mxCell id="144" style="edgeStyle=none;html=1;" edge="1" parent="2" source="124" target="143">
                    <mxGeometry relative="1" as="geometry"/>
                </mxCell>
                <mxCell id="124" value="Handle User Input" style="rounded=0;whiteSpace=wrap;html=1;" parent="2" vertex="1">
                    <mxGeometry x="2248" y="1706" width="120" height="60" as="geometry"/>
                </mxCell>
                <mxCell id="126" style="edgeStyle=none;html=1;" parent="2" source="125" target="124" edge="1">
                    <mxGeometry relative="1" as="geometry"/>
                </mxCell>
                <mxCell id="125" value="Start" style="rounded=1;whiteSpace=wrap;html=1;" parent="2" vertex="1">
                    <mxGeometry x="2099" y="1706" width="120" height="60" as="geometry"/>
                </mxCell>
                <mxCell id="141" style="edgeStyle=none;html=1;" edge="1" parent="2" source="127" target="27">
                    <mxGeometry relative="1" as="geometry"/>
                </mxCell>
                <mxCell id="127" value="MeshShape" style="swimlane;fontStyle=1;align=center;verticalAlign=top;childLayout=stackLayout;horizontal=1;startSize=26;horizontalStack=0;resizeParent=1;resizeParentMax=0;resizeLast=0;collapsible=1;marginBottom=0;whiteSpace=wrap;html=1;" vertex="1" parent="2">
                    <mxGeometry x="636" y="1111" width="160" height="95" as="geometry"/>
                </mxCell>
                <mxCell id="128" value="- Transform*wk&lt;div&gt;- m_faces : vector*wk&lt;/div&gt;" style="text;strokeColor=none;fillColor=none;align=left;verticalAlign=top;spacingLeft=4;spacingRight=4;overflow=hidden;rotatable=0;points=[[0,0.5],[1,0.5]];portConstraint=eastwest;whiteSpace=wrap;html=1;" vertex="1" parent="127">
                    <mxGeometry y="26" width="160" height="35" as="geometry"/>
                </mxCell>
                <mxCell id="129" value="" style="line;strokeWidth=1;fillColor=none;align=left;verticalAlign=middle;spacingTop=-1;spacingLeft=3;spacingRight=3;rotatable=0;labelPosition=right;points=[];portConstraint=eastwest;strokeColor=inherit;" vertex="1" parent="127">
                    <mxGeometry y="61" width="160" height="8" as="geometry"/>
                </mxCell>
                <mxCell id="130" value="+ GetFaces() : vector*wk" style="text;strokeColor=none;fillColor=none;align=left;verticalAlign=top;spacingLeft=4;spacingRight=4;overflow=hidden;rotatable=0;points=[[0,0.5],[1,0.5]];portConstraint=eastwest;whiteSpace=wrap;html=1;" vertex="1" parent="127">
                    <mxGeometry y="69" width="160" height="26" as="geometry"/>
                </mxCell>
                <mxCell id="140" style="edgeStyle=none;html=1;" edge="1" parent="2" source="131" target="27">
                    <mxGeometry relative="1" as="geometry"/>
                </mxCell>
                <mxCell id="131" value="CubeShape" style="swimlane;fontStyle=1;align=center;verticalAlign=top;childLayout=stackLayout;horizontal=1;startSize=26;horizontalStack=0;resizeParent=1;resizeParentMax=0;resizeLast=0;collapsible=1;marginBottom=0;whiteSpace=wrap;html=1;" vertex="1" parent="2">
                    <mxGeometry x="437" y="1111" width="160" height="98" as="geometry"/>
                </mxCell>
                <mxCell id="132" value="- Transform*wk&lt;div&gt;- m_halfSize : vec3&lt;/div&gt;" style="text;strokeColor=none;fillColor=none;align=left;verticalAlign=top;spacingLeft=4;spacingRight=4;overflow=hidden;rotatable=0;points=[[0,0.5],[1,0.5]];portConstraint=eastwest;whiteSpace=wrap;html=1;" vertex="1" parent="131">
                    <mxGeometry y="26" width="160" height="38" as="geometry"/>
                </mxCell>
                <mxCell id="133" value="" style="line;strokeWidth=1;fillColor=none;align=left;verticalAlign=middle;spacingTop=-1;spacingLeft=3;spacingRight=3;rotatable=0;labelPosition=right;points=[];portConstraint=eastwest;strokeColor=inherit;" vertex="1" parent="131">
                    <mxGeometry y="64" width="160" height="8" as="geometry"/>
                </mxCell>
                <mxCell id="134" value="+ GetHalfSize() : vec3" style="text;strokeColor=none;fillColor=none;align=left;verticalAlign=top;spacingLeft=4;spacingRight=4;overflow=hidden;rotatable=0;points=[[0,0.5],[1,0.5]];portConstraint=eastwest;whiteSpace=wrap;html=1;" vertex="1" parent="131">
                    <mxGeometry y="72" width="160" height="26" as="geometry"/>
                </mxCell>
                <mxCell id="139" style="edgeStyle=none;html=1;" edge="1" parent="2" source="135" target="27">
                    <mxGeometry relative="1" as="geometry"/>
                </mxCell>
                <mxCell id="135" value="SphereShape" style="swimlane;fontStyle=1;align=center;verticalAlign=top;childLayout=stackLayout;horizontal=1;startSize=26;horizontalStack=0;resizeParent=1;resizeParentMax=0;resizeLast=0;collapsible=1;marginBottom=0;whiteSpace=wrap;html=1;" vertex="1" parent="2">
                    <mxGeometry x="228" y="1111" width="160" height="94" as="geometry"/>
                </mxCell>
                <mxCell id="136" value="- Transform*wk&lt;div&gt;- m_Radius : float&lt;/div&gt;" style="text;strokeColor=none;fillColor=none;align=left;verticalAlign=top;spacingLeft=4;spacingRight=4;overflow=hidden;rotatable=0;points=[[0,0.5],[1,0.5]];portConstraint=eastwest;whiteSpace=wrap;html=1;" vertex="1" parent="135">
                    <mxGeometry y="26" width="160" height="34" as="geometry"/>
                </mxCell>
                <mxCell id="137" value="" style="line;strokeWidth=1;fillColor=none;align=left;verticalAlign=middle;spacingTop=-1;spacingLeft=3;spacingRight=3;rotatable=0;labelPosition=right;points=[];portConstraint=eastwest;strokeColor=inherit;" vertex="1" parent="135">
                    <mxGeometry y="60" width="160" height="8" as="geometry"/>
                </mxCell>
                <mxCell id="138" value="+ GetRadius();" style="text;strokeColor=none;fillColor=none;align=left;verticalAlign=top;spacingLeft=4;spacingRight=4;overflow=hidden;rotatable=0;points=[[0,0.5],[1,0.5]];portConstraint=eastwest;whiteSpace=wrap;html=1;" vertex="1" parent="135">
                    <mxGeometry y="68" width="160" height="26" as="geometry"/>
                </mxCell>
                <mxCell id="146" style="edgeStyle=none;html=1;" edge="1" parent="2" source="143" target="145">
                    <mxGeometry relative="1" as="geometry"/>
                </mxCell>
                <mxCell id="143" value="Update GameObjects" style="rounded=0;whiteSpace=wrap;html=1;" vertex="1" parent="2">
                    <mxGeometry x="2402.5" y="1706" width="120" height="60" as="geometry"/>
                </mxCell>
                <mxCell id="148" style="edgeStyle=none;html=1;" edge="1" parent="2" source="145" target="147">
                    <mxGeometry relative="1" as="geometry"/>
                </mxCell>
                <mxCell id="145" value="Collision Detection" style="rounded=0;whiteSpace=wrap;html=1;" vertex="1" parent="2">
                    <mxGeometry x="2558" y="1706" width="120" height="60" as="geometry"/>
                </mxCell>
                <mxCell id="150" style="edgeStyle=none;html=1;" edge="1" parent="2" source="147" target="149">
                    <mxGeometry relative="1" as="geometry"/>
                </mxCell>
                <mxCell id="147" value="Collision Resolution" style="rounded=0;whiteSpace=wrap;html=1;" vertex="1" parent="2">
                    <mxGeometry x="2720" y="1706" width="120" height="60" as="geometry"/>
                </mxCell>
                <mxCell id="149" value="End" style="rounded=1;whiteSpace=wrap;html=1;" vertex="1" parent="2">
                    <mxGeometry x="2720" y="1810" width="120" height="60" as="geometry"/>
                </mxCell>
                <mxCell id="151" value="End" style="rounded=1;whiteSpace=wrap;html=1;" vertex="1" parent="2">
                    <mxGeometry x="2483" y="903" width="120" height="60" as="geometry"/>
                </mxCell>
                <mxCell id="153" value="End" style="rounded=1;whiteSpace=wrap;html=1;" vertex="1" parent="2">
                    <mxGeometry x="2765" y="702.25" width="120" height="60" as="geometry"/>
                </mxCell>
                <mxCell id="155" value="End" style="rounded=1;whiteSpace=wrap;html=1;" vertex="1" parent="2">
                    <mxGeometry x="2744" y="454" width="120" height="60" as="geometry"/>
                </mxCell>
                <mxCell id="157" value="End" style="rounded=1;whiteSpace=wrap;html=1;" vertex="1" parent="2">
                    <mxGeometry x="2803" y="222.5" width="120" height="60" as="geometry"/>
                </mxCell>
                <mxCell id="159" value="End" style="rounded=1;whiteSpace=wrap;html=1;" vertex="1" parent="2">
                    <mxGeometry x="1503" y="734" width="120" height="60" as="geometry"/>
                </mxCell>
            </root>
        </mxGraphModel>
    </diagram>
</mxfile>